<?xml version="1.0" encoding="UTF-8" ?>
<!DOCTYPE svg PUBLIC "-//W3C//DTD SVG 1.1//EN" "http://www.w3.org/Graphics/SVG/1.1/DTD/svg11.dtd">
<svg width="1280pt" height="896pt" viewBox="0 0 1280 896" version="1.1" xmlns="http://www.w3.org/2000/svg">
<path fill="#ffffff" opacity="1.00" d=" M 0.00 0.00 L 1280.00 0.00 L 1280.00 896.00 L 0.00 896.00 L 0.00 0.00 Z" />
<path fill="#0e1a3c" opacity="1.00" d=" M 741.30 124.28 C 744.38 117.83 756.02 121.68 754.24 128.93 C 751.44 158.54 752.54 188.32 751.93 218.00 C 752.23 242.14 750.48 266.66 755.51 290.44 C 754.20 290.43 752.91 290.42 751.62 290.41 C 751.70 291.96 751.78 293.51 751.96 295.06 C 749.25 295.91 746.55 296.76 743.78 297.35 C 735.61 298.73 727.31 297.66 719.44 295.29 C 716.65 302.46 712.15 308.82 706.51 314.03 C 707.13 321.67 707.09 329.35 706.37 336.98 C 712.86 330.87 719.35 324.57 723.71 316.69 C 726.28 311.63 731.84 307.84 737.68 309.15 C 743.09 309.99 746.12 314.97 748.82 319.19 C 752.67 325.39 758.16 330.27 763.12 335.54 C 762.88 337.13 762.66 338.73 762.45 340.33 C 755.62 334.95 749.20 328.84 744.78 321.28 C 742.60 317.66 739.81 313.15 734.98 313.38 C 729.90 313.53 728.19 319.19 725.65 322.64 C 720.33 330.28 713.81 337.35 705.93 342.39 C 705.79 340.75 705.60 339.13 705.41 337.52 C 702.23 341.24 699.02 345.12 694.59 347.41 L 693.80 347.90 C 696.82 344.68 701.05 341.79 701.60 337.07 C 702.63 330.85 702.41 324.53 702.44 318.25 C 704.83 311.91 711.25 307.81 712.17 300.81 C 719.51 283.84 718.65 265.08 719.15 247.00 C 718.82 211.66 718.56 176.31 717.34 140.98 C 716.96 137.81 717.88 133.10 722.03 133.53 C 729.49 133.87 737.62 131.29 741.30 124.28 Z" />
<path fill="#eee1e0" opacity="1.00" d=" M 743.42 129.44 C 744.91 127.78 747.34 123.59 749.23 127.10 C 749.75 134.07 748.33 141.05 748.46 148.04 C 741.65 149.44 734.54 150.12 727.71 148.45 C 733.55 147.96 739.61 148.04 745.23 146.13 C 748.32 141.23 747.64 135.01 746.72 129.55 C 740.95 134.16 734.85 140.54 726.67 138.53 C 732.82 136.83 739.52 134.90 743.42 129.44 Z" />
<path fill="#fcdfc5" opacity="1.00" d=" M 726.67 138.53 C 734.85 140.54 740.95 134.16 746.72 129.55 C 747.64 135.01 748.32 141.23 745.23 146.13 C 739.61 148.04 733.55 147.96 727.71 148.45 C 725.87 148.45 724.06 148.23 722.25 148.06 C 722.20 144.75 722.17 141.44 722.18 138.13 C 723.67 138.27 725.17 138.41 726.67 138.53 Z" />
<path fill="#f7e7de" opacity="1.00" d=" M 722.58 152.79 C 725.51 153.28 728.43 153.81 731.34 154.45 C 729.17 154.74 727.01 155.14 724.86 155.53 C 725.10 157.41 725.25 159.32 725.80 161.15 C 730.90 163.97 737.12 164.54 742.83 163.78 C 747.12 163.18 746.70 157.78 747.82 154.62 C 747.78 157.90 747.73 161.18 747.64 164.46 C 739.65 165.96 731.30 166.32 723.36 164.32 C 721.78 160.84 722.83 156.57 722.58 152.79 Z" />
<path fill="#fbdec5" opacity="1.00" d=" M 731.34 154.45 C 736.95 154.13 742.58 154.03 748.14 153.10 C 748.06 153.48 747.90 154.24 747.82 154.62 C 746.70 157.78 747.12 163.18 742.83 163.78 C 737.12 164.54 730.90 163.97 725.80 161.15 C 725.25 159.32 725.10 157.41 724.86 155.53 C 727.01 155.14 729.17 154.74 731.34 154.45 Z" />
<path fill="#f9f9f9" opacity="1.00" d=" M 509.60 170.51 C 520.47 168.49 531.23 165.74 542.22 164.43 C 551.31 163.50 558.86 169.40 566.16 173.87 C 571.28 177.05 568.85 183.84 566.42 188.01 C 568.67 186.36 571.26 185.11 574.13 185.47 C 572.87 188.67 571.50 191.83 570.11 194.97 C 576.12 187.33 585.99 186.00 594.42 182.40 C 596.95 181.10 600.16 183.24 600.03 186.04 C 599.34 191.82 595.68 196.69 591.76 200.78 C 588.13 204.18 588.51 209.52 586.70 213.82 C 585.70 216.81 583.54 219.49 583.41 222.71 C 584.24 226.59 587.09 229.58 589.27 232.77 C 587.46 234.11 585.66 235.46 583.85 236.80 C 586.33 238.72 589.54 240.26 590.72 243.37 C 591.89 246.31 589.42 248.85 588.15 251.28 C 589.74 254.05 591.45 256.75 593.26 259.38 C 591.61 261.49 589.41 263.04 586.95 264.07 C 584.86 266.85 583.45 270.05 582.73 273.45 C 583.54 273.64 585.16 274.02 585.97 274.20 C 567.35 301.82 554.62 333.14 546.74 365.42 C 539.78 364.40 535.45 358.49 529.44 355.52 C 524.76 353.02 521.33 348.75 518.96 344.10 C 514.97 336.12 510.33 328.46 506.70 320.31 C 504.77 315.85 503.95 310.50 505.95 305.94 C 507.77 303.11 511.20 301.99 513.54 299.67 C 513.64 296.80 513.36 292.94 510.62 291.34 C 507.12 290.70 503.56 291.54 500.07 291.92 C 498.63 284.74 499.30 276.98 495.62 270.39 C 490.64 261.54 480.08 252.22 469.35 257.39 C 463.58 260.87 455.88 257.69 452.93 252.00 C 454.61 249.45 457.19 247.72 459.50 245.82 C 455.62 244.19 451.43 243.28 447.73 241.26 C 446.26 238.93 446.58 235.52 448.72 233.70 C 452.09 230.26 457.58 229.60 460.49 225.73 C 459.87 220.18 457.87 213.87 462.17 209.17 C 466.12 205.19 469.38 200.73 471.63 195.57 C 478.97 187.07 492.41 183.25 502.64 188.78 C 502.72 186.14 502.93 183.51 503.28 180.90 C 502.55 179.65 501.79 178.41 501.18 177.10 C 504.06 175.00 507.14 173.13 509.60 170.51 Z" />
<path fill="#f9e1cc" opacity="1.00" d=" M 722.80 169.10 C 730.96 170.77 739.38 170.95 747.57 169.38 C 747.49 173.15 747.46 176.92 747.49 180.69 C 739.42 182.35 731.13 182.03 723.05 180.66 C 722.83 176.81 722.77 172.96 722.80 169.10 Z" />
<path fill="#f9f9fb" opacity="1.00" d=" M 418.28 177.44 C 427.83 174.97 437.93 173.39 447.78 174.40 C 455.84 176.69 465.51 176.88 471.36 183.70 C 468.19 186.92 466.83 191.20 465.24 195.29 C 461.97 199.70 459.27 204.53 455.77 208.76 C 450.33 214.10 444.46 219.64 442.36 227.25 C 441.02 233.25 435.26 237.64 435.78 244.09 C 436.54 248.82 431.77 251.09 428.81 253.74 C 431.00 255.00 433.82 255.73 435.12 258.09 C 433.88 261.59 430.80 263.97 428.58 266.84 C 421.12 257.39 410.74 250.33 399.14 247.06 C 392.50 245.01 385.60 244.01 378.71 243.31 C 382.13 241.27 386.12 242.21 389.84 242.60 C 389.32 238.39 387.53 234.51 384.30 231.70 C 381.61 229.66 382.59 226.19 382.19 223.31 C 380.67 221.32 378.35 220.13 376.68 218.27 C 375.60 213.20 377.32 208.03 378.00 203.00 C 381.88 202.97 386.56 202.20 389.28 205.71 C 393.72 210.93 399.18 215.35 406.06 216.75 C 405.94 215.67 405.82 214.60 405.71 213.53 C 400.60 212.19 395.90 209.57 392.25 205.74 C 390.16 203.54 386.91 200.82 388.27 197.42 C 391.76 194.44 396.51 193.70 400.43 191.44 C 407.39 188.04 410.39 179.34 418.28 177.44 Z" />
<path fill="#f6e6dd" opacity="1.00" d=" M 723.23 185.19 C 724.91 185.52 726.60 185.84 728.29 186.18 C 726.91 187.29 725.53 188.41 724.17 189.52 C 725.57 195.78 732.61 196.36 737.90 195.91 C 740.91 195.73 744.63 194.49 745.17 191.05 C 741.65 187.04 735.17 189.18 730.60 186.87 C 736.17 186.61 741.76 186.37 747.31 185.69 C 747.31 189.27 747.30 192.86 747.30 196.45 C 739.38 198.36 731.17 197.91 723.21 196.54 C 723.17 192.75 723.17 188.97 723.23 185.19 Z" />
<path fill="#fcdfc3" opacity="1.00" d=" M 724.17 189.52 C 725.53 188.41 726.91 187.29 728.29 186.18 C 728.86 186.35 730.02 186.70 730.60 186.87 C 735.17 189.18 741.65 187.04 745.17 191.05 C 744.63 194.49 740.91 195.73 737.90 195.91 C 732.61 196.36 725.57 195.78 724.17 189.52 Z" />
<path fill="#f7e9e0" opacity="1.00" d=" M 723.31 201.30 C 729.62 202.53 736.05 202.53 742.46 202.60 C 738.20 204.51 733.54 204.62 728.97 204.39 C 725.02 203.57 724.72 210.09 728.01 210.94 C 732.50 212.67 737.41 212.83 742.17 213.15 C 735.95 214.40 729.58 213.67 723.39 212.69 C 723.36 208.89 723.34 205.10 723.31 201.30 Z" />
<path fill="#fbe1c7" opacity="1.00" d=" M 742.46 202.60 C 743.99 202.08 745.56 201.70 747.15 201.29 C 747.20 205.02 747.21 208.75 747.24 212.47 C 745.55 212.74 743.87 213.05 742.17 213.15 C 737.41 212.83 732.50 212.67 728.01 210.94 C 724.72 210.09 725.02 203.57 728.97 204.39 C 733.54 204.62 738.20 204.51 742.46 202.60 Z" />
<path fill="#071f45" opacity="1.00" d=" M 651.39 214.45 C 664.67 208.55 682.03 207.15 693.55 217.48 C 701.48 224.68 704.67 235.65 705.31 246.04 C 706.12 266.58 704.44 287.18 705.86 307.69 C 708.00 305.43 709.97 303.02 712.17 300.81 C 711.25 307.81 704.83 311.91 702.44 318.25 C 694.98 324.16 689.10 332.09 680.60 336.63 C 674.08 340.07 666.21 339.15 659.64 336.35 C 652.00 333.11 644.87 328.74 636.95 326.14 C 643.28 337.60 653.01 347.39 665.39 352.12 C 665.38 352.84 665.37 354.27 665.37 354.99 C 641.72 359.34 618.49 366.80 597.36 378.39 C 592.51 381.01 587.91 384.11 583.72 387.70 C 600.31 384.99 616.24 379.49 632.18 374.31 C 638.42 372.25 644.84 370.65 650.76 367.73 C 652.41 367.14 654.45 365.58 655.99 367.21 C 655.14 371.54 651.00 374.10 648.68 377.63 C 639.67 389.96 632.61 403.66 626.94 417.82 C 625.91 420.27 624.73 422.98 622.10 424.08 C 616.25 426.90 610.12 429.14 604.21 431.84 C 600.28 433.45 596.40 435.17 592.65 437.15 C 599.14 437.67 605.79 437.77 612.08 435.81 C 615.10 434.90 617.99 433.58 621.00 432.61 C 617.64 446.80 614.29 461.04 613.11 475.61 C 612.35 481.79 611.36 488.00 612.02 494.24 C 616.46 490.39 617.11 484.27 618.96 479.04 C 627.16 451.85 636.51 424.90 649.48 399.58 C 653.49 407.18 656.19 415.41 660.40 422.93 C 657.89 421.70 655.40 420.43 653.09 418.86 C 651.61 416.50 650.32 414.03 648.99 411.59 C 647.09 415.38 645.30 419.22 643.69 423.14 C 639.73 431.62 636.99 440.60 633.00 449.06 C 630.34 453.04 627.76 457.45 628.60 462.45 C 626.29 474.07 621.58 485.01 618.21 496.32 C 614.91 498.84 609.19 498.99 607.77 494.34 C 606.32 487.03 607.90 479.50 609.17 472.27 C 610.21 468.24 610.82 464.12 610.97 459.97 C 611.24 453.25 613.21 446.78 614.32 440.19 C 603.16 442.93 591.20 442.57 580.80 437.35 C 579.92 435.50 579.06 433.65 578.07 431.87 C 581.62 433.32 585.60 434.38 589.36 433.00 C 597.55 429.82 605.39 425.79 613.65 422.77 C 616.97 421.39 621.09 420.25 622.41 416.47 C 627.25 404.90 632.66 393.52 639.47 382.97 C 641.01 380.53 642.59 378.11 644.13 375.67 C 641.75 376.32 639.39 376.99 637.05 377.71 C 628.03 380.57 618.98 383.36 610.21 386.92 C 612.96 394.05 612.21 401.79 609.92 408.93 C 608.60 408.90 607.30 408.88 606.00 408.86 C 606.97 403.05 608.36 397.04 606.55 391.23 C 600.75 395.54 596.39 401.33 591.78 406.81 C 591.14 406.80 589.85 406.77 589.21 406.75 C 588.99 406.04 588.57 404.61 588.36 403.89 C 590.11 401.60 591.88 399.30 593.79 397.14 C 596.21 394.43 598.74 391.83 601.15 389.11 C 595.63 390.04 590.21 391.46 584.68 392.33 C 582.37 392.18 580.07 391.89 577.78 391.61 C 579.21 380.42 591.83 376.50 600.37 371.73 C 602.89 370.60 605.43 369.50 607.86 368.20 C 609.94 367.05 611.97 365.82 614.01 364.59 C 609.76 361.71 606.11 357.88 601.43 355.71 C 595.55 354.84 589.71 356.96 583.87 357.50 C 583.72 356.50 583.43 354.52 583.28 353.53 C 588.08 352.17 592.99 351.20 597.95 350.63 C 595.36 347.28 593.30 343.52 592.36 339.36 C 593.23 339.36 594.96 339.36 595.83 339.36 C 601.35 348.19 608.62 356.21 617.98 361.02 C 621.52 362.81 625.39 360.79 628.85 359.77 C 637.38 356.52 646.21 354.22 655.12 352.29 C 647.75 347.75 641.74 341.49 636.57 334.61 C 634.90 334.04 633.19 333.61 631.49 333.17 C 631.71 332.46 631.94 331.76 632.18 331.06 C 632.37 330.48 632.75 329.32 632.94 328.74 C 628.56 326.09 623.29 322.72 618.06 325.08 C 612.23 327.70 605.82 328.54 599.50 327.68 C 600.30 326.27 601.10 324.85 602.04 323.53 C 605.95 323.40 609.89 323.19 613.71 322.27 C 609.50 316.90 603.97 312.74 599.52 307.57 C 600.58 306.38 601.71 305.26 602.84 304.13 C 607.30 308.64 611.06 314.08 616.66 317.29 C 621.44 319.65 626.82 320.27 631.91 321.69 C 630.57 318.53 629.20 315.38 628.17 312.11 C 628.53 310.90 628.91 309.69 629.29 308.48 C 630.28 308.88 631.27 309.29 632.28 309.71 C 633.46 313.51 634.68 317.54 637.41 320.56 C 640.17 322.80 643.76 323.57 647.03 324.80 C 637.95 308.92 631.53 290.56 633.00 272.06 C 635.08 271.37 637.78 270.51 639.45 272.55 C 643.71 276.93 645.81 282.86 648.61 288.19 C 650.41 292.57 651.96 297.05 653.87 301.39 C 655.60 297.29 657.02 293.04 657.74 288.64 C 659.37 280.26 656.37 272.00 655.88 263.67 C 657.54 264.37 659.22 265.07 660.83 265.90 C 661.94 273.58 663.00 281.31 662.51 289.09 C 667.61 285.11 671.45 279.83 676.29 275.56 C 677.80 285.00 668.10 289.97 662.11 295.17 C 658.24 300.57 655.23 307.76 657.59 314.40 C 659.64 320.54 660.23 327.51 664.14 332.81 C 669.70 335.53 676.77 334.42 681.60 330.63 C 687.13 326.47 692.02 321.53 697.01 316.76 C 699.93 314.36 701.76 310.90 701.16 307.05 C 700.13 287.01 701.46 266.95 700.78 246.92 C 700.44 235.11 695.50 222.02 684.00 216.97 C 674.57 212.75 663.67 214.65 654.37 218.28 C 637.36 225.19 622.86 237.12 610.45 250.46 C 583.11 280.16 564.88 317.30 553.88 355.90 C 550.63 366.48 549.46 377.65 550.58 388.67 C 549.08 387.67 547.58 386.67 546.09 385.68 C 545.55 388.80 545.27 391.95 545.28 395.12 C 545.38 402.38 543.68 409.48 542.92 416.67 C 540.34 441.04 538.06 465.47 537.28 489.97 C 536.74 503.16 536.31 516.43 537.84 529.57 C 538.81 536.12 540.87 543.41 546.68 547.30 C 552.26 550.89 559.59 549.36 564.80 545.81 C 571.79 541.14 578.16 535.54 585.63 531.62 C 597.84 524.68 611.59 521.24 625.29 518.70 C 627.52 518.35 629.75 517.95 631.98 517.51 C 647.16 515.12 662.89 514.82 677.45 509.49 C 689.54 505.08 699.32 494.63 702.26 482.02 C 706.57 465.86 704.28 448.98 703.52 432.53 C 704.33 427.84 705.71 423.28 706.80 418.66 C 708.05 429.47 708.49 440.35 709.23 451.21 C 709.40 457.33 709.33 463.45 709.44 469.57 C 707.96 483.67 703.12 498.52 691.22 507.25 C 682.55 513.90 671.73 516.94 661.05 518.41 C 646.34 520.46 631.57 522.18 617.07 525.45 C 602.81 528.01 589.26 534.07 577.58 542.59 C 571.51 547.03 565.58 552.38 557.97 553.87 C 550.55 555.52 542.37 552.07 538.37 545.63 C 533.36 537.61 532.76 527.84 532.35 518.65 C 531.70 495.06 533.42 471.48 535.20 447.96 C 537.32 420.25 540.52 392.55 546.74 365.42 C 554.62 333.14 567.35 301.82 585.97 274.20 C 602.59 249.63 623.71 226.45 651.39 214.45 Z" />
<path fill="#082047" opacity="1.00" d=" M 774.63 220.61 C 780.40 213.32 789.81 209.58 798.99 209.71 C 808.43 209.87 817.57 212.96 825.95 217.15 C 841.74 225.22 855.19 237.14 867.00 250.24 C 897.35 284.46 916.22 327.68 925.89 372.09 C 931.53 397.71 933.90 423.88 936.12 449.98 C 937.74 471.79 939.23 493.65 938.93 515.54 C 938.78 525.05 938.48 534.98 934.11 543.66 C 930.35 551.22 921.34 555.80 913.03 553.89 C 904.49 552.03 898.39 545.25 891.25 540.72 C 865.82 522.79 833.60 522.59 804.08 517.46 C 790.06 515.00 776.22 507.68 769.01 494.98 C 764.34 487.26 762.80 478.19 761.89 469.35 C 761.65 463.18 761.80 457.00 761.98 450.84 C 763.80 414.80 768.49 378.74 765.42 342.62 C 764.42 341.86 763.42 341.09 762.45 340.33 C 762.66 338.73 762.88 337.13 763.12 335.54 C 763.54 335.43 764.38 335.21 764.81 335.11 C 766.23 335.55 767.67 336.02 769.10 336.49 C 769.11 335.98 769.12 334.98 769.13 334.48 L 769.17 333.72 C 769.50 337.35 769.80 341.56 773.08 343.86 C 787.06 355.52 800.09 368.48 810.52 383.46 C 813.84 388.57 811.97 394.97 812.21 400.67 C 811.57 407.69 810.97 414.73 809.48 421.63 C 807.46 416.43 808.00 410.75 807.77 405.30 C 807.37 399.20 808.19 393.03 807.07 386.99 C 799.51 374.46 788.67 364.29 778.15 354.25 C 775.63 351.97 772.99 349.84 770.34 347.72 C 770.41 352.39 770.63 357.06 771.12 361.71 C 771.01 369.38 770.76 377.06 770.78 384.74 C 770.10 406.52 767.68 428.18 766.55 449.93 C 766.26 461.06 765.71 472.53 769.35 483.24 C 771.96 492.76 778.17 501.27 786.81 506.16 C 799.53 513.83 814.78 514.04 829.05 516.24 C 851.08 519.55 874.17 523.13 892.88 536.11 C 899.36 540.23 905.03 545.82 912.28 548.62 C 919.06 551.22 927.00 547.61 930.10 541.20 C 935.11 530.94 934.30 519.12 934.42 508.01 C 933.60 469.90 930.33 431.85 925.64 394.03 C 924.68 387.08 926.08 379.02 921.02 373.36 C 918.76 358.81 914.14 344.75 909.08 330.96 C 897.25 299.51 879.96 269.75 856.22 245.77 C 844.76 234.48 831.83 224.20 816.75 218.23 C 809.00 215.10 800.38 213.33 792.09 215.11 C 783.86 216.89 777.03 223.16 773.80 230.84 C 770.21 238.69 769.93 247.50 770.03 255.99 C 770.28 273.69 770.32 291.39 770.10 309.08 C 769.62 312.33 771.98 314.65 774.16 316.64 C 780.63 322.61 786.66 329.53 794.79 333.26 C 799.79 334.94 808.02 335.00 809.76 328.76 C 811.51 323.92 812.76 318.90 813.98 313.90 C 815.67 308.01 812.35 302.38 810.47 296.99 C 811.63 295.78 812.80 294.58 813.98 293.39 C 814.93 296.37 816.13 299.27 817.35 302.15 C 821.52 292.04 824.67 281.16 831.42 272.39 C 833.47 269.37 837.03 270.93 838.77 273.36 C 839.32 291.60 832.79 308.92 824.85 325.01 C 828.64 323.41 833.69 322.71 835.55 318.51 C 839.14 311.43 839.76 303.38 841.76 295.80 C 842.85 296.34 843.95 296.88 845.06 297.42 C 845.11 305.77 842.60 313.76 839.76 321.50 C 845.33 320.43 851.02 319.39 856.11 316.74 C 857.58 317.42 859.06 318.10 860.54 318.79 C 859.51 319.75 858.49 320.72 857.48 321.70 C 859.55 322.20 861.64 322.70 863.77 323.01 C 866.20 323.39 868.64 323.71 871.09 324.04 C 871.14 325.48 871.20 326.93 871.27 328.38 C 865.91 328.07 860.41 327.82 855.47 325.53 C 849.77 322.55 841.40 324.63 838.79 330.79 C 838.11 332.10 837.47 333.43 836.82 334.76 C 831.95 337.45 828.67 342.02 824.75 345.82 C 822.12 348.04 819.27 349.98 816.50 352.03 C 823.26 354.02 830.11 355.64 836.98 357.20 C 840.72 358.79 844.41 360.56 848.30 361.79 C 851.17 362.70 854.07 363.57 856.87 364.71 C 860.45 366.19 864.20 368.76 868.22 367.18 C 875.84 364.92 883.66 363.23 891.64 363.10 C 891.74 364.41 891.85 365.73 891.97 367.05 C 884.88 368.17 877.76 369.20 870.85 371.17 C 879.07 376.76 892.09 380.20 893.19 391.79 C 885.30 393.21 877.58 390.66 869.98 388.95 C 874.56 394.81 881.90 399.30 883.04 407.20 C 874.78 404.77 871.59 395.40 864.34 391.19 C 863.37 397.42 864.73 403.62 865.13 409.82 C 863.75 408.94 861.71 408.70 861.07 407.01 C 858.44 400.69 858.91 393.61 860.58 387.11 C 850.08 382.04 838.76 378.93 827.53 375.92 C 835.00 388.01 842.29 400.30 847.50 413.57 C 848.61 416.49 850.18 419.56 853.35 420.67 C 863.10 424.85 872.93 428.87 882.63 433.19 C 885.42 433.98 888.35 433.68 891.08 432.76 C 891.23 434.27 891.39 435.79 891.56 437.31 C 880.71 442.40 868.44 443.12 856.90 440.07 C 858.31 446.97 860.24 453.79 860.94 460.82 C 860.81 467.76 859.31 475.22 863.26 481.47 C 864.01 485.51 864.96 489.72 863.93 493.79 C 863.15 496.98 859.43 498.95 856.36 497.81 C 854.27 496.56 853.05 494.35 851.67 492.44 C 848.98 482.69 845.10 473.32 842.40 463.57 C 841.44 459.70 840.44 455.83 839.00 452.10 C 834.39 440.08 829.24 428.27 824.94 416.14 C 824.03 413.49 823.13 410.84 822.14 408.23 C 819.02 413.67 816.36 419.38 812.93 424.65 C 812.42 424.22 811.40 423.36 810.88 422.93 C 814.45 416.33 818.33 409.70 819.43 402.15 C 820.25 401.39 821.09 400.65 821.95 399.93 C 832.31 420.14 839.67 441.67 847.50 462.92 C 850.85 473.39 852.71 484.84 859.05 494.01 C 860.08 481.79 857.59 469.58 855.50 457.59 C 854.68 449.06 851.64 440.96 850.47 432.50 C 859.45 436.54 869.30 438.51 879.13 436.91 C 869.43 432.54 859.55 428.60 849.90 424.12 C 847.11 422.98 845.13 420.61 844.16 417.80 C 838.59 403.85 831.91 390.20 822.80 378.19 C 820.23 374.70 816.91 371.78 814.79 367.98 C 817.22 365.30 820.24 368.21 822.87 369.03 C 830.64 372.02 838.73 374.10 846.71 376.43 C 859.93 381.21 873.42 385.43 887.32 387.73 C 876.66 378.49 863.67 372.35 850.51 367.57 C 837.48 362.21 823.83 358.48 809.99 355.91 C 810.67 353.59 811.35 351.27 812.03 348.95 C 821.59 343.88 829.15 335.61 834.48 326.29 C 823.21 330.16 813.07 337.66 800.99 338.85 C 788.97 339.39 780.82 329.05 772.67 321.81 C 771.51 320.69 770.37 319.56 769.26 318.43 C 767.86 317.01 766.49 315.58 765.07 314.20 C 763.51 312.68 761.86 311.26 760.27 309.79 C 756.84 305.30 753.77 300.44 751.96 295.06 C 751.78 293.51 751.70 291.96 751.62 290.41 C 752.91 290.42 754.20 290.43 755.51 290.44 C 757.47 297.02 760.83 303.18 765.65 308.10 C 766.12 289.74 765.57 271.37 765.56 253.01 C 765.71 241.76 767.21 229.59 774.63 220.61 Z" />
<path fill="#86e4e9" opacity="1.00" d=" M 654.37 218.28 C 663.67 214.65 674.57 212.75 684.00 216.97 C 695.50 222.02 700.44 235.11 700.78 246.92 C 701.46 266.95 700.13 287.01 701.16 307.05 C 701.76 310.90 699.93 314.36 697.01 316.76 C 696.94 316.12 696.80 314.84 696.72 314.19 C 698.01 303.14 695.93 292.04 697.26 280.99 C 698.47 270.86 698.23 260.56 696.42 250.53 C 695.63 246.06 692.85 242.38 690.07 238.95 C 685.76 232.96 678.99 228.67 671.46 228.60 C 655.06 227.89 640.89 237.82 629.13 248.15 C 613.53 260.82 602.19 277.65 591.19 294.23 C 582.96 309.37 574.26 324.43 568.88 340.88 C 565.47 351.13 561.10 361.22 560.12 372.10 C 557.89 388.73 560.03 407.42 571.62 420.39 C 576.29 426.14 583.06 429.41 589.36 433.00 C 585.60 434.38 581.62 433.32 578.07 431.87 C 561.73 423.79 551.93 406.51 550.58 388.67 C 549.46 377.65 550.63 366.48 553.88 355.90 C 564.88 317.30 583.11 280.16 610.45 250.46 C 622.86 237.12 637.36 225.19 654.37 218.28 Z" />
<path fill="#83e3e8" opacity="1.00" d=" M 773.80 230.84 C 777.03 223.16 783.86 216.89 792.09 215.11 C 800.38 213.33 809.00 215.10 816.75 218.23 C 831.83 224.20 844.76 234.48 856.22 245.77 C 879.96 269.75 897.25 299.51 909.08 330.96 C 914.14 344.75 918.76 358.81 921.02 373.36 C 921.65 388.58 919.73 404.82 910.47 417.44 C 905.68 424.33 898.70 429.40 891.08 432.76 C 888.35 433.68 885.42 433.98 882.63 433.19 C 893.12 427.66 902.61 419.19 906.97 407.92 C 911.26 396.91 912.58 384.75 911.07 373.05 C 908.90 359.22 903.50 346.17 899.06 332.97 C 886.16 301.98 868.95 271.86 843.65 249.30 C 833.31 239.81 821.03 231.73 807.11 228.81 C 798.89 227.16 788.93 228.38 783.46 235.40 C 776.65 244.36 775.72 256.12 775.75 266.98 C 776.07 282.89 775.50 298.78 774.32 314.64 C 774.28 315.14 774.20 316.14 774.16 316.64 C 771.98 314.65 769.62 312.33 770.10 309.08 C 770.32 291.39 770.28 273.69 770.03 255.99 C 769.93 247.50 770.21 238.69 773.80 230.84 Z" />
<path fill="#f3e6df" opacity="1.00" d=" M 723.48 217.27 C 724.85 217.58 726.22 217.89 727.61 218.20 C 725.90 220.72 723.41 224.80 727.29 226.73 C 733.33 229.51 745.46 229.52 745.27 220.39 C 740.04 220.23 734.77 220.04 729.69 218.70 C 735.54 218.73 741.39 218.34 747.20 217.62 C 747.20 221.35 747.19 225.09 747.09 228.82 C 739.30 230.05 731.36 229.99 723.63 228.40 C 723.64 224.69 723.57 220.98 723.48 217.27 Z" />
<path fill="#fbddc3" opacity="1.00" d=" M 727.29 226.73 C 723.41 224.80 725.90 220.72 727.61 218.20 C 728.13 218.33 729.17 218.58 729.69 218.70 C 734.77 220.04 740.04 220.23 745.27 220.39 C 745.46 229.52 733.33 229.51 727.29 226.73 Z" />
<path fill="#4adbd3" opacity="1.00" d=" M 629.13 248.15 C 640.89 237.82 655.06 227.89 671.46 228.60 C 678.99 228.67 685.76 232.96 690.07 238.95 C 694.26 248.02 695.26 258.12 695.05 268.00 C 694.91 283.40 694.02 298.94 696.72 314.19 C 696.80 314.84 696.94 316.12 697.01 316.76 C 692.02 321.53 687.13 326.47 681.60 330.63 C 676.77 334.42 669.70 335.53 664.14 332.81 C 660.23 327.51 659.64 320.54 657.59 314.40 C 655.23 307.76 658.24 300.57 662.11 295.17 C 668.10 289.97 677.80 285.00 676.29 275.56 C 672.55 276.62 669.26 278.74 666.34 281.25 C 664.57 276.11 663.59 270.64 660.83 265.90 C 659.22 265.07 657.54 264.37 655.88 263.67 C 656.37 272.00 659.37 280.26 657.74 288.64 C 656.43 290.53 655.00 292.32 653.60 294.13 C 651.90 292.18 650.18 290.24 648.61 288.19 C 645.81 282.86 643.71 276.93 639.45 272.55 C 637.78 270.51 635.08 271.37 633.00 272.06 C 632.47 272.27 631.43 272.68 630.91 272.89 C 630.44 280.81 631.34 288.71 633.00 296.45 C 632.30 296.51 630.89 296.62 630.19 296.68 C 628.77 296.79 627.35 296.92 625.95 297.05 C 626.20 302.12 626.67 307.23 628.17 312.11 C 629.20 315.38 630.57 318.53 631.91 321.69 C 626.82 320.27 621.44 319.65 616.66 317.29 C 611.06 314.08 607.30 308.64 602.84 304.13 C 601.71 305.26 600.58 306.38 599.52 307.57 C 601.04 312.34 604.99 315.68 608.05 319.46 C 606.01 320.76 603.95 322.05 602.04 323.53 C 601.10 324.85 600.30 326.27 599.50 327.68 C 605.82 328.54 612.23 327.70 618.06 325.08 C 623.29 322.72 628.56 326.09 632.94 328.74 C 632.75 329.32 632.37 330.48 632.18 331.06 C 626.48 332.87 621.15 335.64 616.16 338.90 C 616.28 339.75 616.53 341.47 616.66 342.33 C 623.68 340.75 629.41 335.83 636.57 334.61 C 641.74 341.49 647.75 347.75 655.12 352.29 C 646.21 354.22 637.38 356.52 628.85 359.77 C 625.39 360.79 621.52 362.81 617.98 361.02 C 608.62 356.21 601.35 348.19 595.83 339.36 C 594.96 339.36 593.23 339.36 592.36 339.36 C 593.30 343.52 595.36 347.28 597.95 350.63 C 592.99 351.20 588.08 352.17 583.28 353.53 C 583.43 354.52 583.72 356.50 583.87 357.50 C 589.71 356.96 595.55 354.84 601.43 355.71 C 606.11 357.88 609.76 361.71 614.01 364.59 C 611.97 365.82 609.94 367.05 607.86 368.20 C 598.59 366.08 589.40 363.32 579.82 363.02 C 579.82 364.51 579.85 366.00 579.87 367.49 C 586.83 368.19 593.80 369.27 600.37 371.73 C 591.83 376.50 579.21 380.42 577.78 391.61 C 580.07 391.89 582.37 392.18 584.68 392.33 C 587.67 392.58 590.66 392.87 593.65 393.15 C 593.69 394.48 593.74 395.80 593.79 397.14 C 591.88 399.30 590.11 401.60 588.36 403.89 C 588.57 404.61 588.99 406.04 589.21 406.75 C 589.85 406.77 591.14 406.80 591.78 406.81 C 596.39 401.33 600.75 395.54 606.55 391.23 C 608.36 397.04 606.97 403.05 606.00 408.86 C 607.30 408.88 608.60 408.90 609.92 408.93 C 612.21 401.79 612.96 394.05 610.21 386.92 C 618.98 383.36 628.03 380.57 637.05 377.71 C 637.86 379.46 638.66 381.21 639.47 382.97 C 632.66 393.52 627.25 404.90 622.41 416.47 C 621.09 420.25 616.97 421.39 613.65 422.77 C 605.39 425.79 597.55 429.82 589.36 433.00 C 583.06 429.41 576.29 426.14 571.62 420.39 C 560.03 407.42 557.89 388.73 560.12 372.10 C 561.10 361.22 565.47 351.13 568.88 340.88 C 574.26 324.43 582.96 309.37 591.19 294.23 C 602.19 277.65 613.53 260.82 629.13 248.15 Z" />
<path fill="#49d9d1" opacity="1.00" d=" M 783.46 235.40 C 788.93 228.38 798.89 227.16 807.11 228.81 C 821.03 231.73 833.31 239.81 843.65 249.30 C 868.95 271.86 886.16 301.98 899.06 332.97 C 903.50 346.17 908.90 359.22 911.07 373.05 C 912.58 384.75 911.26 396.91 906.97 407.92 C 902.61 419.19 893.12 427.66 882.63 433.19 C 872.93 428.87 863.10 424.85 853.35 420.67 C 850.18 419.56 848.61 416.49 847.50 413.57 C 842.29 400.30 835.00 388.01 827.53 375.92 C 838.76 378.93 850.08 382.04 860.58 387.11 C 858.91 393.61 858.44 400.69 861.07 407.01 C 861.71 408.70 863.75 408.94 865.13 409.82 C 864.73 403.62 863.37 397.42 864.34 391.19 C 871.59 395.40 874.78 404.77 883.04 407.20 C 881.90 399.30 874.56 394.81 869.98 388.95 C 877.58 390.66 885.30 393.21 893.19 391.79 C 892.09 380.20 879.07 376.76 870.85 371.17 C 877.76 369.20 884.88 368.17 891.97 367.05 C 891.85 365.73 891.74 364.41 891.64 363.10 C 883.66 363.23 875.84 364.92 868.22 367.18 C 864.20 368.76 860.45 366.19 856.87 364.71 C 861.39 361.94 865.15 357.89 870.09 355.85 C 876.13 355.07 882.15 356.82 888.16 357.35 C 888.40 356.41 888.86 354.54 889.09 353.60 C 886.89 349.91 882.13 349.73 878.44 348.54 C 878.59 346.43 878.76 344.32 878.91 342.22 C 878.06 341.00 877.21 339.78 876.37 338.57 C 871.89 343.71 868.48 349.81 863.13 354.16 C 858.83 357.65 854.28 362.16 848.30 361.79 C 844.41 360.56 840.72 358.79 836.98 357.20 C 832.61 354.87 827.84 353.48 823.32 351.50 C 823.47 349.54 824.08 347.65 824.75 345.82 C 828.67 342.02 831.95 337.45 836.82 334.76 C 842.29 336.94 847.32 340.27 852.96 341.96 C 855.19 342.33 854.78 339.62 855.32 338.21 C 851.57 334.34 846.77 331.79 842.30 328.88 C 851.45 321.46 861.46 333.92 871.27 328.38 C 871.20 326.93 871.14 325.48 871.09 324.04 C 868.64 323.71 866.20 323.39 863.77 323.01 C 865.87 323.03 867.99 322.95 870.11 322.89 C 867.84 321.88 865.58 320.88 863.32 319.89 C 866.02 316.10 869.38 312.61 870.87 308.10 C 870.88 307.46 870.89 306.19 870.89 305.55 C 870.13 305.29 868.59 304.77 867.83 304.50 C 864.15 308.79 860.60 313.27 856.11 316.74 C 851.02 319.39 845.33 320.43 839.76 321.50 C 842.60 313.76 845.11 305.77 845.06 297.42 C 843.95 296.88 842.85 296.34 841.76 295.80 C 840.91 295.38 840.08 294.96 839.26 294.55 C 839.40 287.50 841.19 280.21 838.77 273.36 C 837.03 270.93 833.47 269.37 831.42 272.39 C 824.67 281.16 821.52 292.04 817.35 302.15 C 816.13 299.27 814.93 296.37 813.98 293.39 C 811.84 285.06 812.85 276.38 815.14 268.22 C 815.55 266.36 815.94 264.50 816.34 262.64 C 813.71 263.21 809.92 262.68 808.74 265.77 C 806.47 270.94 806.37 276.72 805.43 282.22 C 802.53 279.57 799.97 276.19 796.13 274.93 C 793.44 275.81 791.99 279.00 793.33 281.55 C 797.09 289.83 807.45 292.87 810.44 301.65 C 813.81 310.46 810.63 320.02 807.21 328.29 C 805.56 332.33 800.38 332.41 796.85 331.21 C 787.75 328.19 781.71 320.28 774.32 314.64 C 775.50 298.78 776.07 282.89 775.75 266.98 C 775.72 256.12 776.65 244.36 783.46 235.40 Z" />
<path fill="#052045" opacity="1.00" d=" M 251.68 234.84 C 258.55 232.83 267.40 229.85 273.20 235.79 C 278.66 242.08 277.42 251.28 276.92 258.97 C 275.76 268.71 263.28 271.82 255.69 267.43 C 248.70 262.81 239.24 262.65 233.95 255.40 C 233.76 252.64 233.51 249.88 233.46 247.11 C 233.53 245.90 233.65 244.69 233.82 243.49 C 237.58 237.28 245.51 237.07 251.68 234.84 Z" />
<path fill="#061f45" opacity="1.00" d=" M 333.71 244.98 C 333.66 238.71 338.58 232.53 345.08 232.36 C 352.64 232.10 359.68 235.43 366.94 237.10 C 370.07 238.15 375.03 238.76 375.06 243.02 C 375.60 246.43 376.25 249.82 376.90 253.22 C 376.85 253.76 376.76 254.84 376.71 255.39 C 376.29 256.95 375.78 258.49 375.21 260.01 C 374.18 263.17 370.56 263.79 367.79 264.62 C 361.51 266.08 355.38 268.20 349.00 269.20 C 343.65 270.14 337.54 267.74 335.31 262.58 C 332.98 257.04 333.65 250.83 333.71 244.98 Z" />
<path fill="#efe0db" opacity="1.00" d=" M 723.65 233.51 C 731.46 234.71 739.39 234.62 747.20 233.47 C 747.15 237.18 747.10 240.89 746.94 244.59 C 739.29 245.52 731.19 246.46 723.76 243.93 C 723.46 240.47 723.64 236.98 723.65 233.51 Z" />
<path fill="#f9f9f9" opacity="1.00" d=" M 885.77 245.80 C 886.85 240.75 889.04 235.26 894.86 234.41 C 897.90 235.78 899.26 239.35 902.23 240.78 C 907.17 241.10 912.75 238.58 917.16 241.84 C 920.52 244.60 923.40 248.54 923.98 252.93 C 922.78 259.55 915.88 263.31 914.63 270.02 C 920.34 269.99 925.88 268.11 931.59 268.29 C 935.97 268.40 939.02 271.91 942.16 274.48 C 944.65 271.51 946.42 267.92 949.28 265.26 C 953.93 262.20 959.98 264.90 962.82 269.18 C 966.21 273.15 966.67 278.47 967.83 283.34 C 968.36 286.42 972.30 286.81 974.65 285.60 C 980.15 283.12 986.28 284.01 992.11 283.41 C 993.49 279.83 994.43 274.59 999.03 273.97 C 1003.91 272.61 1007.73 276.48 1012.06 277.81 C 1014.99 277.49 1017.77 276.30 1020.73 276.06 C 1023.21 278.30 1024.66 281.63 1027.61 283.36 C 1033.33 285.79 1039.03 280.93 1044.84 282.11 C 1048.78 283.97 1050.08 289.21 1054.19 290.77 C 1059.16 290.75 1064.13 290.14 1069.11 290.77 C 1073.13 291.54 1074.75 285.78 1078.95 286.78 C 1093.08 287.88 1107.27 291.79 1118.91 300.13 C 1123.34 303.68 1129.25 303.64 1134.29 305.78 C 1139.22 307.96 1139.34 318.31 1133.00 318.13 C 1128.03 317.66 1123.27 315.49 1118.19 316.23 C 1118.60 317.86 1119.05 319.49 1119.50 321.12 C 1115.41 323.48 1111.25 326.88 1106.20 325.70 C 1102.30 324.75 1097.21 326.31 1097.91 331.19 C 1102.01 332.17 1105.26 334.84 1107.61 338.27 C 1110.14 335.64 1112.61 329.94 1116.71 333.67 C 1113.41 339.17 1106.52 339.90 1102.19 344.19 C 1098.26 347.84 1094.26 351.40 1090.04 354.72 C 1085.06 350.75 1078.69 351.18 1072.83 352.38 C 1074.15 358.03 1077.11 363.09 1078.80 368.61 C 1074.75 372.64 1074.94 378.67 1072.55 383.56 C 1071.15 386.17 1071.26 389.14 1071.63 391.99 C 1069.39 393.50 1067.15 395.01 1064.93 396.53 C 1063.41 389.35 1060.77 382.51 1058.36 375.61 C 1056.86 370.96 1056.35 365.52 1059.36 361.34 C 1063.28 355.88 1064.48 348.97 1068.74 343.73 C 1070.19 342.00 1070.82 339.81 1071.29 337.63 C 1067.76 337.86 1066.20 340.87 1065.02 343.76 C 1062.73 342.60 1060.19 339.89 1057.51 341.46 C 1054.16 343.66 1051.19 346.77 1049.61 350.48 C 1048.97 353.49 1051.33 359.74 1046.23 359.28 C 1037.17 357.50 1027.60 353.86 1018.48 357.56 C 1015.36 358.65 1014.48 362.10 1014.09 365.02 C 1013.38 371.41 1009.70 376.96 1008.96 383.35 C 1015.33 386.77 1022.31 388.67 1029.48 386.58 C 1028.57 389.69 1028.35 392.94 1029.04 396.12 C 1030.02 394.78 1030.98 393.43 1031.97 392.09 C 1035.72 397.67 1035.66 404.97 1040.20 410.20 C 1038.70 412.19 1037.17 414.15 1035.59 416.06 C 1033.79 410.77 1032.47 405.29 1029.82 400.33 C 1029.58 409.86 1027.47 419.13 1026.43 428.58 C 1025.85 431.93 1024.08 435.75 1020.43 436.54 C 1016.94 437.17 1013.65 435.19 1010.19 435.11 C 1006.10 436.75 1003.59 441.50 1004.08 445.81 C 1006.55 449.93 1012.20 452.01 1012.68 457.38 C 1014.18 464.23 1008.87 470.40 1002.14 471.11 C 1000.34 465.41 1000.50 458.92 997.18 453.82 C 992.80 450.06 987.08 448.36 981.87 446.08 C 982.40 450.20 985.05 453.30 987.78 456.20 C 986.98 459.03 985.33 461.51 983.95 464.08 C 986.71 466.69 989.84 469.33 990.90 473.15 C 993.87 482.53 989.92 492.32 985.42 500.49 C 980.50 506.33 973.30 509.75 966.28 512.38 C 965.79 516.41 967.20 521.90 962.96 524.29 C 960.56 521.73 960.48 517.98 959.61 514.77 C 956.99 515.24 953.56 515.75 953.10 518.98 C 954.54 522.56 957.60 525.09 959.89 528.11 C 964.13 533.42 966.35 540.69 964.37 547.35 C 963.27 553.06 956.68 554.28 953.28 558.24 C 948.45 554.21 945.55 545.46 938.57 545.57 C 935.76 554.66 943.02 562.24 948.58 568.44 C 949.27 573.67 949.89 578.91 950.57 584.15 C 949.25 583.93 947.94 583.73 946.65 583.54 C 946.67 582.16 946.71 580.78 946.75 579.42 C 945.07 579.87 943.40 580.32 941.73 580.77 C 944.44 588.76 951.71 593.84 957.73 599.28 C 956.99 603.33 956.45 607.42 956.15 611.53 C 960.00 612.04 963.88 612.49 967.78 612.64 C 967.76 619.79 967.92 626.95 967.58 634.10 C 965.19 629.56 965.34 624.44 966.61 619.60 C 957.24 617.39 950.72 609.44 942.05 606.05 C 939.25 605.79 936.45 605.76 933.67 605.70 C 933.43 619.42 933.70 633.14 933.54 646.86 C 933.54 647.19 933.53 647.84 933.53 648.17 C 938.07 648.05 942.61 648.07 947.15 648.38 C 942.52 650.16 937.55 650.16 932.72 649.45 C 927.16 648.88 920.90 652.96 915.97 648.80 C 913.05 644.96 909.93 640.67 909.63 635.70 C 912.24 639.44 914.61 643.35 917.06 647.22 C 920.39 647.22 923.73 647.22 927.08 647.21 C 923.90 642.36 920.76 637.48 917.71 632.55 C 922.34 629.19 926.36 624.07 925.36 617.99 C 925.21 611.39 919.36 606.80 913.26 605.81 C 911.45 605.31 909.67 604.75 907.91 604.19 C 915.00 602.55 921.16 607.12 927.92 607.93 C 932.07 605.57 936.30 603.24 941.29 603.51 C 939.04 598.50 936.42 593.67 934.43 588.56 C 932.39 583.23 927.41 579.59 925.87 574.04 C 931.15 568.80 936.90 576.79 940.55 580.33 C 939.14 571.98 936.18 564.06 932.24 556.60 C 929.61 552.33 933.93 548.68 936.17 545.43 C 935.66 544.99 934.63 544.10 934.11 543.66 C 938.48 534.98 938.78 525.05 938.93 515.54 C 939.23 493.65 937.74 471.79 936.12 449.98 C 933.90 423.88 931.53 397.71 925.89 372.09 C 916.22 327.68 897.35 284.46 867.00 250.24 C 873.25 248.77 879.77 248.14 885.77 245.80 Z" />
<path fill="#fcdec2" opacity="1.00" d=" M 727.61 235.74 C 733.22 235.33 738.96 235.61 744.51 236.54 C 745.09 238.51 744.91 240.58 744.92 242.61 C 738.72 243.95 732.36 243.84 726.17 242.56 C 725.97 240.31 724.43 236.55 727.61 235.74 Z" />
<path fill="#2dc9ce" opacity="1.00" d=" M 250.00 239.97 C 255.70 238.59 261.72 235.38 267.62 237.34 C 274.25 240.59 272.29 249.18 272.71 255.18 C 261.90 261.19 249.68 256.31 238.90 252.91 C 238.73 250.23 238.54 247.55 238.52 244.86 C 241.29 241.61 246.17 241.44 250.00 239.97 Z" />
<path fill="#3ebaca" opacity="1.00" d=" M 338.57 254.86 C 338.43 248.87 336.44 239.12 344.00 236.95 C 352.24 236.40 360.20 239.80 368.02 242.03 C 374.53 243.79 372.85 251.87 372.30 256.89 C 371.94 255.42 371.53 253.97 371.12 252.53 C 370.09 249.13 369.44 244.64 365.36 243.65 C 358.22 241.27 350.20 238.51 342.73 240.75 C 339.27 244.68 340.18 250.54 339.40 255.39 L 338.57 254.86 Z" />
<path fill="#73e9e9" opacity="1.00" d=" M 690.07 238.95 C 692.85 242.38 695.63 246.06 696.42 250.53 C 698.23 260.56 698.47 270.86 697.26 280.99 C 695.93 292.04 698.01 303.14 696.72 314.19 C 694.02 298.94 694.91 283.40 695.05 268.00 C 695.26 258.12 694.26 248.02 690.07 238.95 Z" />
<path fill="#29c7d1" opacity="1.00" d=" M 342.73 240.75 C 350.20 238.51 358.22 241.27 365.36 243.65 C 369.44 244.64 370.09 249.13 371.12 252.53 C 361.56 257.20 349.38 260.75 339.40 255.39 C 340.18 250.54 339.27 244.68 342.73 240.75 Z" />
<path fill="#051333" opacity="1.00" d=" M 375.06 243.02 C 376.27 243.10 377.49 243.20 378.71 243.31 C 385.60 244.01 392.50 245.01 399.14 247.06 C 397.93 248.24 396.72 249.43 395.52 250.62 C 389.57 248.99 383.44 248.30 377.37 247.32 C 377.21 249.28 377.05 251.25 376.90 253.22 C 376.25 249.82 375.60 246.43 375.06 243.02 Z" />
<path fill="#0f1d3f" opacity="1.00" d=" M 177.36 274.34 C 188.30 254.18 211.54 243.68 233.82 243.49 C 233.65 244.69 233.53 245.90 233.46 247.11 C 224.25 248.96 214.67 249.90 206.13 254.10 C 192.57 260.11 181.63 271.94 177.22 286.15 C 173.47 297.25 174.11 309.15 174.75 320.67 C 177.44 357.79 184.29 394.57 194.50 430.35 C 193.16 431.31 191.89 432.36 190.68 433.48 C 180.59 400.28 174.45 365.96 170.87 331.47 C 169.42 312.37 167.28 291.65 177.36 274.34 Z" />
<path fill="#1ba2be" opacity="1.00" d=" M 242.85 260.10 C 236.19 258.35 238.34 249.95 238.52 244.86 C 238.54 247.55 238.73 250.23 238.90 252.91 C 249.68 256.31 261.90 261.19 272.71 255.18 C 272.55 259.28 270.85 264.53 265.94 264.66 C 258.04 264.82 250.44 261.94 242.85 260.10 Z" />
<path fill="#bed7e5" opacity="1.00" d=" M 206.13 254.10 C 214.67 249.90 224.25 248.96 233.46 247.11 C 233.51 249.88 233.76 252.64 233.95 255.40 C 216.47 255.76 197.86 263.18 188.86 278.94 C 180.04 293.06 182.01 310.39 182.95 326.20 C 185.85 360.77 192.62 394.92 202.01 428.29 C 199.46 428.81 196.94 429.47 194.50 430.35 C 184.29 394.57 177.44 357.79 174.75 320.67 C 174.11 309.15 173.47 297.25 177.22 286.15 C 181.63 271.94 192.57 260.11 206.13 254.10 Z" />
<path fill="#bed8ea" opacity="1.00" d=" M 377.37 247.32 C 383.44 248.30 389.57 248.99 395.52 250.62 C 404.43 253.40 413.16 257.52 419.91 264.11 C 431.99 275.51 437.33 292.68 436.73 309.01 C 435.60 350.15 427.26 390.71 416.61 430.33 C 414.10 429.51 411.54 428.87 409.00 428.19 C 419.52 389.62 427.43 350.06 428.87 310.02 C 429.78 295.61 425.56 280.26 414.96 270.06 C 404.67 260.52 390.51 256.11 376.71 255.39 C 376.76 254.84 376.85 253.76 376.90 253.22 C 377.05 251.25 377.21 249.28 377.37 247.32 Z" />
<path fill="#0d1f43" opacity="1.00" d=" M 399.14 247.06 C 410.74 250.33 421.12 257.39 428.58 266.84 C 437.74 278.38 441.56 293.43 441.32 307.99 C 440.91 331.30 438.04 354.53 433.58 377.40 C 430.13 396.24 425.53 414.85 420.33 433.27 C 419.15 432.21 417.90 431.23 416.61 430.33 C 427.26 390.71 435.60 350.15 436.73 309.01 C 437.33 292.68 431.99 275.51 419.91 264.11 C 413.16 257.52 404.43 253.40 395.52 250.62 C 396.72 249.43 397.93 248.24 399.14 247.06 Z" />
<path fill="#f5eae8" opacity="1.00" d=" M 723.51 249.23 C 731.31 250.68 739.28 250.55 747.12 249.44 C 747.19 253.03 747.28 256.62 747.44 260.22 C 739.50 261.85 731.33 261.61 723.41 259.98 C 723.50 256.40 723.53 252.82 723.51 249.23 Z" />
<path fill="#fce2c9" opacity="1.00" d=" M 728.32 251.62 C 733.70 251.48 739.20 251.46 744.49 252.56 C 746.09 254.89 744.71 258.46 741.84 258.80 C 737.33 259.54 732.66 259.56 728.16 258.80 C 724.39 258.36 724.24 251.62 728.32 251.62 Z" />
<path fill="#1a9aba" opacity="1.00" d=" M 371.12 252.53 C 371.53 253.97 371.94 255.42 372.30 256.89 C 372.04 259.13 368.35 259.57 366.43 260.47 C 359.11 262.12 351.81 265.29 344.18 264.57 C 339.68 263.77 338.11 258.89 338.57 254.86 L 339.40 255.39 C 349.38 260.75 361.56 257.20 371.12 252.53 Z" />
<path fill="#0e1b3f" opacity="1.00" d=" M 188.86 278.94 C 197.86 263.18 216.47 255.76 233.95 255.40 C 239.24 262.65 248.70 262.81 255.69 267.43 C 248.04 266.31 239.96 265.10 233.89 259.93 C 220.05 260.55 205.43 265.33 196.37 276.36 C 183.93 290.68 186.32 310.81 187.73 328.29 C 190.16 353.81 194.34 379.17 200.40 404.08 C 202.38 411.29 203.38 418.92 206.53 425.71 C 210.13 428.72 213.90 431.85 214.66 436.82 C 211.25 432.96 207.00 429.76 202.01 428.29 C 192.62 394.92 185.85 360.77 182.95 326.20 C 182.01 310.39 180.04 293.06 188.86 278.94 Z" />
<path fill="#0b1b3e" opacity="1.00" d=" M 375.21 260.01 C 375.78 258.49 376.29 256.95 376.71 255.39 C 390.51 256.11 404.67 260.52 414.96 270.06 C 425.56 280.26 429.78 295.61 428.87 310.02 C 427.43 350.06 419.52 389.62 409.00 428.19 C 402.69 430.20 399.11 435.72 395.90 441.09 C 395.87 440.52 395.80 439.40 395.77 438.84 C 396.37 436.46 396.92 434.04 398.03 431.84 C 399.81 428.49 404.47 427.54 405.46 423.66 C 415.83 386.27 423.06 347.83 424.28 308.98 C 424.45 298.10 422.43 286.63 415.65 277.81 C 406.33 265.57 390.13 260.32 375.21 260.01 Z" />
<path fill="#62d8db" opacity="1.00" d=" M 808.74 265.77 C 809.92 262.68 813.71 263.21 816.34 262.64 C 815.94 264.50 815.55 266.36 815.14 268.22 C 815.09 266.57 815.00 264.92 814.88 263.28 C 813.17 264.31 810.82 265.01 810.40 267.25 C 808.20 274.15 808.30 281.48 808.08 288.65 C 802.54 285.65 800.56 276.52 793.38 277.48 C 796.45 286.03 804.30 290.93 810.47 296.99 C 812.35 302.38 815.67 308.01 813.98 313.90 C 812.76 318.90 811.51 323.92 809.76 328.76 C 808.02 335.00 799.79 334.94 794.79 333.26 C 786.66 329.53 780.63 322.61 774.16 316.64 C 774.20 316.14 774.28 315.14 774.32 314.64 C 781.71 320.28 787.75 328.19 796.85 331.21 C 800.38 332.41 805.56 332.33 807.21 328.29 C 810.63 320.02 813.81 310.46 810.44 301.65 C 807.45 292.87 797.09 289.83 793.33 281.55 C 791.99 279.00 793.44 275.81 796.13 274.93 C 799.97 276.19 802.53 279.57 805.43 282.22 C 806.37 276.72 806.47 270.94 808.74 265.77 Z" />
<path fill="#00254a" opacity="1.00" d=" M 810.40 267.25 C 810.82 265.01 813.17 264.31 814.88 263.28 C 815.00 264.92 815.09 266.57 815.14 268.22 C 812.85 276.38 811.84 285.06 813.98 293.39 C 812.80 294.58 811.63 295.78 810.47 296.99 C 804.30 290.93 796.45 286.03 793.38 277.48 C 800.56 276.52 802.54 285.65 808.08 288.65 C 808.30 281.48 808.20 274.15 810.40 267.25 Z" />
<path fill="#fae1cc" opacity="1.00" d=" M 723.27 264.97 C 731.32 266.37 739.51 266.36 747.59 265.12 C 747.72 268.65 747.88 272.19 747.98 275.73 C 739.89 277.61 731.34 277.96 723.32 275.56 C 722.31 272.13 723.22 268.48 723.27 264.97 Z" />
<path fill="#65d4d6" opacity="1.00" d=" M 660.83 265.90 C 663.59 270.64 664.57 276.11 666.34 281.25 C 669.26 278.74 672.55 276.62 676.29 275.56 C 671.45 279.83 667.61 285.11 662.51 289.09 C 663.00 281.31 661.94 273.58 660.83 265.90 Z" />
<path fill="#55d1d0" opacity="1.00" d=" M 630.91 272.89 C 631.43 272.68 632.47 272.27 633.00 272.06 C 631.53 290.56 637.95 308.92 647.03 324.80 C 643.76 323.57 640.17 322.80 637.41 320.56 C 634.68 317.54 633.46 313.51 632.28 309.71 C 631.30 305.41 630.82 301.03 630.19 296.68 C 630.89 296.62 632.30 296.51 633.00 296.45 C 631.34 288.71 630.44 280.81 630.91 272.89 Z" />
<path fill="#f9f9f9" opacity="1.00" d=" M 299.93 273.31 C 310.75 272.58 322.18 274.38 331.00 281.09 C 332.45 283.53 333.64 286.91 337.07 286.78 C 343.31 287.02 348.75 290.05 354.50 292.08 C 354.56 288.49 353.07 284.34 355.18 281.14 C 356.95 278.39 360.39 279.88 362.98 280.06 C 363.30 287.94 365.40 295.59 368.13 302.94 C 370.76 306.46 379.41 304.70 378.76 310.63 C 378.68 316.74 369.88 316.65 369.62 322.66 C 376.06 324.17 383.84 324.89 388.87 319.66 C 387.32 316.52 386.47 312.74 388.69 309.67 C 390.61 309.41 392.48 310.10 394.33 310.48 C 393.94 306.98 393.70 303.05 397.26 301.09 C 398.22 294.69 396.88 288.28 391.86 283.88 C 394.27 281.49 396.29 277.46 400.18 277.60 C 405.33 277.69 410.50 278.38 415.65 277.81 C 422.43 286.63 424.45 298.10 424.28 308.98 C 423.06 347.83 415.83 386.27 405.46 423.66 C 404.47 427.54 399.81 428.49 398.03 431.84 C 396.92 434.04 396.37 436.46 395.77 438.84 C 387.96 465.44 372.23 490.48 348.74 505.83 C 346.38 503.12 343.58 500.81 341.47 497.91 C 339.55 494.43 339.25 490.28 337.25 486.83 C 334.03 481.19 328.38 477.51 324.85 472.10 C 318.71 463.40 317.85 452.32 318.02 442.00 C 317.96 437.32 318.56 432.19 316.03 428.00 C 313.40 423.61 308.34 421.69 304.99 418.01 C 302.39 414.40 302.24 409.35 298.75 406.32 C 294.91 402.84 290.33 400.00 287.60 395.46 C 284.79 391.36 283.37 385.82 278.63 383.42 C 267.69 377.54 254.82 378.96 243.31 374.99 C 239.33 381.14 232.60 384.19 226.03 386.72 C 227.83 388.72 230.09 390.51 231.05 393.11 C 231.60 397.05 227.07 398.17 224.38 399.63 C 223.12 397.62 221.85 395.62 220.58 393.62 C 214.95 397.52 209.80 403.61 202.22 402.65 C 201.77 403.01 200.86 403.72 200.40 404.08 C 194.34 379.17 190.16 353.81 187.73 328.29 C 195.16 326.12 198.82 319.01 204.45 314.51 C 215.87 312.73 227.49 315.18 239.00 314.99 C 248.03 314.77 257.34 314.71 265.87 318.13 C 269.31 319.14 273.13 321.95 276.64 319.64 C 282.50 316.43 288.34 313.07 294.80 311.19 C 297.75 312.05 300.82 312.36 303.89 312.31 C 305.31 313.12 306.73 313.94 308.15 314.76 C 312.89 314.08 317.86 313.76 322.42 315.53 C 328.25 317.23 331.50 323.54 337.71 324.36 C 342.25 325.05 348.09 326.56 351.29 322.20 C 353.94 318.77 358.45 321.67 361.92 321.93 C 359.97 320.24 358.18 318.23 355.76 317.21 C 349.08 316.29 342.88 319.90 336.34 320.33 C 331.85 318.69 328.32 315.28 324.71 312.28 C 326.25 311.06 327.79 309.85 329.33 308.64 C 326.08 307.07 322.65 305.92 319.13 305.17 C 318.47 301.84 319.83 298.70 321.04 295.69 C 316.17 297.85 312.69 301.99 308.78 305.45 C 305.15 303.49 301.92 300.91 299.04 297.97 C 299.71 293.13 301.50 288.57 302.74 283.89 C 302.65 280.23 300.71 276.87 299.93 273.31 Z" />
<path fill="#58d0d1" opacity="1.00" d=" M 838.77 273.36 C 841.19 280.21 839.40 287.50 839.26 294.55 C 840.08 294.96 840.91 295.38 841.76 295.80 C 839.76 303.38 839.14 311.43 835.55 318.51 C 833.69 322.71 828.64 323.41 824.85 325.01 C 832.79 308.92 839.32 291.60 838.77 273.36 Z" />
<path fill="#f2dccc" opacity="1.00" d=" M 637.24 276.84 C 645.14 290.24 650.78 305.04 654.08 320.22 C 652.57 319.99 651.08 319.79 649.60 319.49 C 642.04 306.91 637.72 291.69 637.24 276.84 Z" />
<path fill="#f2dfce" opacity="1.00" d=" M 818.02 315.97 C 821.64 302.33 826.85 289.04 833.76 276.74 C 834.05 291.42 829.29 305.83 822.36 318.62 C 820.90 317.73 819.46 316.85 818.02 315.97 Z" />
<path fill="#f9dbc4" opacity="1.00" d=" M 720.62 290.22 C 721.27 286.95 721.89 283.67 722.51 280.40 C 731.15 282.57 740.12 282.37 748.82 280.66 C 749.12 283.97 750.49 287.36 749.83 290.68 C 740.45 294.22 729.90 293.91 720.62 290.22 Z" />
<path fill="#63ccd3" opacity="1.00" d=" M 648.61 288.19 C 650.18 290.24 651.90 292.18 653.60 294.13 C 655.00 292.32 656.43 290.53 657.74 288.64 C 657.02 293.04 655.60 297.29 653.87 301.39 C 651.96 297.05 650.41 292.57 648.61 288.19 Z" />
<path fill="#fcdec6" opacity="1.00" d=" M 719.44 295.29 C 727.31 297.66 735.61 298.73 743.78 297.35 C 752.70 295.63 754.25 305.88 760.27 309.79 C 761.86 311.26 763.51 312.68 765.07 314.20 C 764.19 321.13 764.13 328.15 764.81 335.11 C 764.38 335.21 763.54 335.43 763.12 335.54 C 758.16 330.27 752.67 325.39 748.82 319.19 C 746.12 314.97 743.09 309.99 737.68 309.15 C 731.84 307.84 726.28 311.63 723.71 316.69 C 719.35 324.57 712.86 330.87 706.37 336.98 C 707.09 329.35 707.13 321.67 706.51 314.03 C 712.15 308.82 716.65 302.46 719.44 295.29 Z" />
<path fill="#f8f8f8" opacity="1.00" d=" M 743.78 297.35 C 746.55 296.76 749.25 295.91 751.96 295.06 C 753.77 300.44 756.84 305.30 760.27 309.79 C 754.25 305.88 752.70 295.63 743.78 297.35 Z" />
<path fill="#002c50" opacity="1.00" d=" M 625.95 297.05 C 627.35 296.92 628.77 296.79 630.19 296.68 C 630.82 301.03 631.30 305.41 632.28 309.71 C 631.27 309.29 630.28 308.88 629.29 308.48 C 628.91 309.69 628.53 310.90 628.17 312.11 C 626.67 307.23 626.20 302.12 625.95 297.05 Z" />
<path fill="#002b4d" opacity="1.00" d=" M 856.11 316.74 C 860.60 313.27 864.15 308.79 867.83 304.50 C 868.59 304.77 870.13 305.29 870.89 305.55 C 870.89 306.19 870.88 307.46 870.87 308.10 C 867.60 311.83 864.17 315.41 860.54 318.79 C 859.06 318.10 857.58 317.42 856.11 316.74 Z" />
<path fill="#66d2de" opacity="1.00" d=" M 608.05 319.46 C 604.99 315.68 601.04 312.34 599.52 307.57 C 603.97 312.74 609.50 316.90 613.71 322.27 C 609.89 323.19 605.95 323.40 602.04 323.53 C 603.95 322.05 606.01 320.76 608.05 319.46 Z" />
<path fill="#63d4d8" opacity="1.00" d=" M 860.54 318.79 C 864.17 315.41 867.60 311.83 870.87 308.10 C 869.38 312.61 866.02 316.10 863.32 319.89 C 865.58 320.88 867.84 321.88 870.11 322.89 C 867.99 322.95 865.87 323.03 863.77 323.01 C 861.64 322.70 859.55 322.20 857.48 321.70 C 858.49 320.72 859.51 319.75 860.54 318.79 Z" />
<path fill="#f8f8f8" opacity="1.00" d=" M 725.65 322.64 C 728.19 319.19 729.90 313.53 734.98 313.38 C 739.81 313.15 742.60 317.66 744.78 321.28 C 749.20 328.84 755.62 334.95 762.45 340.33 C 763.42 341.09 764.42 341.86 765.42 342.62 C 768.49 378.74 763.80 414.80 761.98 450.84 C 761.01 450.62 760.06 450.42 759.10 450.22 C 757.37 454.56 755.38 459.81 750.49 461.33 C 745.71 461.04 740.82 460.22 736.32 458.62 C 732.87 454.92 731.96 449.28 727.73 446.25 C 725.32 444.45 721.10 444.54 720.18 447.91 C 721.65 452.16 726.92 456.27 724.09 461.04 C 722.75 464.63 717.18 462.84 716.83 459.48 C 715.84 454.84 715.10 449.88 711.33 446.55 C 710.60 448.09 709.87 449.63 709.23 451.21 C 708.49 440.35 708.05 429.47 706.80 418.66 C 705.59 393.27 703.29 367.77 705.93 342.39 C 713.81 337.35 720.33 330.28 725.65 322.64 Z" />
<path fill="#101534" opacity="1.00" d=" M 765.07 314.20 C 766.49 315.58 767.86 317.01 769.26 318.43 C 768.73 323.77 768.91 329.13 769.13 334.48 C 769.12 334.98 769.11 335.98 769.10 336.49 C 767.67 336.02 766.23 335.55 764.81 335.11 C 764.13 328.15 764.19 321.13 765.07 314.20 Z" />
<path fill="#f3e8e8" opacity="1.00" d=" M 818.02 315.97 C 819.46 316.85 820.90 317.73 822.36 318.62 C 820.33 322.57 818.19 326.56 814.88 329.61 C 815.57 324.98 816.89 320.50 818.02 315.97 Z" />
<path fill="#fce0c9" opacity="1.00" d=" M 680.60 336.63 C 689.10 332.09 694.98 324.16 702.44 318.25 C 702.41 324.53 702.63 330.85 701.60 337.07 C 701.05 341.79 696.82 344.68 693.80 347.90 C 682.51 356.44 673.02 367.18 664.26 378.26 C 661.54 382.03 657.65 385.85 658.33 390.93 C 659.17 401.35 660.33 411.77 661.63 422.15 C 661.32 422.34 660.71 422.74 660.40 422.93 C 656.19 415.41 653.49 407.18 649.48 399.58 C 636.51 424.90 627.16 451.85 618.96 479.04 C 617.71 479.50 616.47 479.97 615.24 480.45 C 614.50 478.84 613.76 477.24 613.11 475.61 C 614.29 461.04 617.64 446.80 621.00 432.61 C 617.99 433.58 615.10 434.90 612.08 435.81 C 609.01 435.56 606.28 434.07 604.21 431.84 C 610.12 429.14 616.25 426.90 622.10 424.08 C 624.73 422.98 625.91 420.27 626.94 417.82 C 632.61 403.66 639.67 389.96 648.68 377.63 C 651.00 374.10 655.14 371.54 655.99 367.21 C 654.45 365.58 652.41 367.14 650.76 367.73 C 644.84 370.65 638.42 372.25 632.18 374.31 C 616.24 379.49 600.31 384.99 583.72 387.70 C 587.91 384.11 592.51 381.01 597.36 378.39 C 618.49 366.80 641.72 359.34 665.37 354.99 C 665.37 354.27 665.38 352.84 665.39 352.12 C 653.01 347.39 643.28 337.60 636.95 326.14 C 644.87 328.74 652.00 333.11 659.64 336.35 C 666.21 339.15 674.08 340.07 680.60 336.63 Z" />
<path fill="#efe6e5" opacity="1.00" d=" M 649.60 319.49 C 651.08 319.79 652.57 319.99 654.08 320.22 C 655.15 323.52 656.17 326.85 656.90 330.25 C 653.34 327.56 651.17 323.58 649.60 319.49 Z" />
<path fill="#e1d7d8" opacity="1.00" d=" M 769.26 318.43 C 770.37 319.56 771.51 320.69 772.67 321.81 C 770.91 325.57 769.46 329.54 769.17 333.72 L 769.13 334.48 C 768.91 329.13 768.73 323.77 769.26 318.43 Z" />
<path fill="#fce0c8" opacity="1.00" d=" M 772.67 321.81 C 780.82 329.05 788.97 339.39 800.99 338.85 C 813.07 337.66 823.21 330.16 834.48 326.29 C 829.15 335.61 821.59 343.88 812.03 348.95 C 809.47 350.32 806.62 351.48 804.96 354.00 C 806.56 354.78 808.25 355.41 809.99 355.91 C 823.83 358.48 837.48 362.21 850.51 367.57 C 858.22 374.58 869.24 376.20 877.21 382.97 C 866.64 382.54 857.39 375.91 846.71 376.43 C 838.73 374.10 830.64 372.02 822.87 369.03 C 820.24 368.21 817.22 365.30 814.79 367.98 C 816.91 371.78 820.23 374.70 822.80 378.19 C 831.91 390.20 838.59 403.85 844.16 417.80 C 845.13 420.61 847.11 422.98 849.90 424.12 C 859.55 428.60 869.43 432.54 879.13 436.91 C 869.30 438.51 859.45 436.54 850.47 432.50 C 851.64 440.96 854.68 449.06 855.50 457.59 C 854.68 464.84 855.52 472.10 855.71 479.36 C 853.08 473.83 851.58 467.67 847.50 462.92 C 839.67 441.67 832.31 420.14 821.95 399.93 C 821.09 400.65 820.25 401.39 819.43 402.15 C 817.71 403.94 816.25 405.95 814.81 407.96 C 813.91 405.54 812.99 403.13 812.21 400.67 C 811.97 394.97 813.84 388.57 810.52 383.46 C 800.09 368.48 787.06 355.52 773.08 343.86 C 769.80 341.56 769.50 337.35 769.17 333.72 C 769.46 329.54 770.91 325.57 772.67 321.81 Z" />
<path fill="#5acace" opacity="1.00" d=" M 838.79 330.79 C 841.40 324.63 849.77 322.55 855.47 325.53 C 860.41 327.82 865.91 328.07 871.27 328.38 C 861.46 333.92 851.45 321.46 842.30 328.88 C 846.77 331.79 851.57 334.34 855.32 338.21 C 849.87 335.59 844.46 332.89 838.79 330.79 Z" />
<path fill="#002d4f" opacity="1.00" d=" M 616.16 338.90 C 621.15 335.64 626.48 332.87 632.18 331.06 C 631.94 331.76 631.71 332.46 631.49 333.17 C 633.19 333.61 634.90 334.04 636.57 334.61 C 629.41 335.83 623.68 340.75 616.66 342.33 C 616.53 341.47 616.28 339.75 616.16 338.90 Z" />
<path fill="#002c4e" opacity="1.00" d=" M 838.79 330.79 C 844.46 332.89 849.87 335.59 855.32 338.21 C 854.78 339.62 855.19 342.33 852.96 341.96 C 847.32 340.27 842.29 336.94 836.82 334.76 C 837.47 333.43 838.11 332.10 838.79 330.79 Z" />
<path fill="#07224d" opacity="1.00" d=" M 694.59 347.41 C 699.02 345.12 702.23 341.24 705.41 337.52 C 705.60 339.13 705.79 340.75 705.93 342.39 C 703.29 367.77 705.59 393.27 706.80 418.66 C 705.71 423.28 704.33 427.84 703.52 432.53 C 700.82 404.35 699.39 375.95 700.50 347.64 C 697.52 350.11 694.60 352.66 691.78 355.31 C 692.92 352.75 693.79 350.09 694.59 347.41 Z" />
<path fill="#002044" opacity="1.00" d=" M 863.13 354.16 C 868.48 349.81 871.89 343.71 876.37 338.57 C 877.21 339.78 878.06 341.00 878.91 342.22 C 876.92 345.03 875.00 347.89 873.05 350.73 C 878.49 351.04 883.91 351.88 889.09 353.60 C 888.86 354.54 888.40 356.41 888.16 357.35 C 882.15 356.82 876.13 355.07 870.09 355.85 C 865.15 357.89 861.39 361.94 856.87 364.71 C 854.07 363.57 851.17 362.70 848.30 361.79 C 854.28 362.16 858.83 357.65 863.13 354.16 Z" />
<path fill="#5ac6cc" opacity="1.00" d=" M 878.91 342.22 C 878.76 344.32 878.59 346.43 878.44 348.54 C 882.13 349.73 886.89 349.91 889.09 353.60 C 883.91 351.88 878.49 351.04 873.05 350.73 C 875.00 347.89 876.92 345.03 878.91 342.22 Z" />
<path fill="#6fd1e0" opacity="1.00" d=" M 816.50 352.03 C 819.27 349.98 822.12 348.04 824.75 345.82 C 824.08 347.65 823.47 349.54 823.32 351.50 C 827.84 353.48 832.61 354.87 836.98 357.20 C 830.11 355.64 823.26 354.02 816.50 352.03 Z" />
<path fill="#f9f9f9" opacity="1.00" d=" M 452.28 348.62 C 459.02 348.91 465.87 348.89 472.44 350.63 C 480.02 352.37 476.12 365.07 484.08 366.04 C 489.79 367.10 491.09 360.46 492.92 356.59 C 499.23 361.87 502.88 369.53 509.17 374.84 C 512.52 378.15 516.64 380.69 519.58 384.41 C 522.84 389.02 521.35 395.01 522.86 400.17 C 524.41 404.35 529.25 406.46 530.29 410.90 C 531.08 414.31 528.97 419.02 525.04 418.99 C 519.05 419.35 513.06 418.57 507.07 418.52 C 505.68 411.80 513.72 411.73 517.68 408.73 C 518.67 408.68 519.66 408.65 520.67 408.62 C 519.32 405.81 518.08 402.95 517.03 400.02 C 509.93 401.97 505.34 408.21 498.57 410.80 C 495.11 412.19 496.11 416.89 497.50 419.48 C 500.73 421.46 504.70 421.56 508.32 422.41 C 506.91 430.31 497.74 432.35 493.43 438.33 C 491.32 436.74 489.30 435.02 487.42 433.18 C 483.36 434.56 480.33 437.62 478.38 441.36 C 476.14 446.16 469.81 446.93 467.71 451.79 C 465.29 456.58 467.15 462.24 465.13 467.14 C 461.74 474.62 453.08 478.41 450.53 486.37 C 449.93 493.70 454.78 501.25 451.30 508.37 C 449.76 509.34 447.32 509.43 446.37 507.61 C 442.99 502.98 443.52 496.88 441.31 491.78 C 434.79 491.67 426.51 485.99 421.65 492.59 C 416.39 491.69 410.97 491.82 406.01 493.94 C 405.44 492.84 404.86 491.74 404.30 490.66 C 403.77 490.45 402.72 490.04 402.19 489.84 C 411.24 475.85 417.75 460.32 422.64 444.44 C 424.13 440.55 423.29 436.22 420.33 433.27 C 425.53 414.85 430.13 396.24 433.58 377.40 C 443.14 378.94 445.78 389.17 451.00 395.74 C 455.39 392.53 453.43 387.34 452.11 383.06 C 453.76 380.42 455.68 377.90 456.79 374.96 C 454.60 370.97 451.29 367.64 449.78 363.26 C 453.34 359.10 454.61 353.72 452.28 348.62 Z" />
<path fill="#071d41" opacity="1.00" d=" M 664.26 378.26 C 673.02 367.18 682.51 356.44 693.80 347.90 L 694.59 347.41 C 693.79 350.09 692.92 352.75 691.78 355.31 C 681.73 365.06 671.10 374.73 663.97 386.90 C 663.12 390.77 663.22 394.76 663.25 398.71 C 663.11 403.26 663.48 407.82 664.60 412.25 C 664.72 412.84 664.97 414.03 665.09 414.62 C 664.10 417.20 662.86 419.68 661.63 422.15 C 660.33 411.77 659.17 401.35 658.33 390.93 C 657.65 385.85 661.54 382.03 664.26 378.26 Z" />
<path fill="#57beef" opacity="1.00" d=" M 691.78 355.31 C 694.60 352.66 697.52 350.11 700.50 347.64 C 699.39 375.95 700.82 404.35 703.52 432.53 C 704.28 448.98 706.57 465.86 702.26 482.02 L 702.52 480.98 C 698.23 486.79 694.46 493.20 688.32 497.32 C 676.51 507.10 660.54 507.50 646.12 509.83 C 632.14 511.32 618.27 513.97 604.72 517.72 C 592.66 520.43 582.21 527.29 570.87 531.83 C 564.30 534.70 555.67 533.97 551.07 527.99 C 545.21 519.99 545.17 509.50 545.02 500.00 C 545.78 471.78 548.63 443.54 554.18 415.86 C 560.17 425.91 569.74 433.55 580.80 437.35 C 591.20 442.57 603.16 442.93 614.32 440.19 C 613.21 446.78 611.24 453.25 610.97 459.97 C 607.61 461.87 604.11 465.91 599.91 464.05 C 592.98 461.49 586.17 457.99 578.58 458.04 C 578.52 459.23 578.46 460.42 578.41 461.62 C 584.86 463.38 591.33 465.23 597.37 468.17 C 593.46 471.15 589.32 474.01 584.56 475.43 C 580.96 476.80 575.45 476.91 575.35 481.95 C 583.13 481.86 590.18 478.44 597.01 475.09 C 596.28 485.28 589.39 493.50 587.92 503.39 C 589.71 502.50 591.90 501.91 592.96 500.05 C 597.78 492.44 600.37 483.67 601.64 474.81 C 601.86 470.57 606.05 468.80 609.13 466.81 C 609.15 468.62 609.19 470.44 609.17 472.27 C 607.90 479.50 606.32 487.03 607.77 494.34 C 609.19 498.99 614.91 498.84 618.21 496.32 C 621.90 491.98 623.12 486.26 625.68 481.29 C 628.49 486.30 630.15 492.45 635.22 495.77 C 636.78 496.37 638.45 496.61 640.09 496.96 C 638.49 490.48 633.53 485.36 632.88 478.57 C 639.51 479.87 643.71 487.59 650.90 486.20 C 652.07 479.69 645.92 476.31 641.12 473.72 C 636.87 471.86 635.49 465.94 638.40 462.36 C 642.07 457.61 646.76 453.77 651.24 449.81 C 651.59 454.55 650.72 459.42 651.91 464.06 C 654.47 468.75 660.05 465.61 663.75 464.39 C 664.79 466.34 665.83 468.29 666.88 470.24 C 667.35 470.43 668.28 470.82 668.75 471.01 C 670.02 470.76 671.31 470.51 672.59 470.28 C 673.64 455.63 667.84 441.80 666.78 427.39 C 671.91 431.73 675.42 437.47 679.23 442.90 C 680.31 444.92 682.78 444.34 684.67 444.56 C 681.52 436.07 675.42 429.15 669.07 422.88 C 666.70 420.74 665.69 417.66 665.09 414.62 C 664.97 414.03 664.72 412.84 664.60 412.25 C 673.71 415.95 683.17 419.39 693.14 419.42 C 693.08 418.04 693.03 416.67 692.98 415.31 C 688.52 414.72 684.08 414.04 679.68 413.14 C 686.47 405.27 692.52 396.57 696.02 386.71 C 694.72 386.47 693.43 386.23 692.15 385.99 C 687.29 393.75 683.65 402.55 676.77 408.81 C 674.22 411.52 670.25 410.05 667.49 408.52 C 663.93 406.68 663.95 402.14 663.25 398.71 C 663.22 394.76 663.12 390.77 663.97 386.90 C 664.14 391.19 664.68 395.45 665.06 399.73 C 665.59 400.21 666.66 401.16 667.19 401.63 C 681.60 389.74 689.98 372.34 698.04 355.87 C 697.75 355.42 697.16 354.53 696.87 354.08 C 695.16 354.47 693.45 354.83 691.78 355.31 Z" />
<path fill="#57c0ec" opacity="1.00" d=" M 770.34 347.72 C 772.99 349.84 775.63 351.97 778.15 354.25 C 776.44 354.80 771.40 353.50 773.22 356.53 C 780.85 373.58 789.94 390.56 803.77 403.46 C 806.76 398.51 807.14 392.62 807.07 386.99 C 808.19 393.03 807.37 399.20 807.77 405.30 C 806.88 405.98 805.99 406.66 805.07 407.27 C 801.70 407.79 797.53 408.89 794.76 406.24 C 789.12 400.90 786.10 393.55 781.62 387.32 C 779.90 384.69 776.36 385.39 773.69 384.93 C 772.73 377.20 772.89 369.34 771.12 361.71 C 770.63 357.06 770.41 352.39 770.34 347.72 Z" />
<path fill="#0e1030" opacity="1.00" d=" M 804.96 354.00 C 806.62 351.48 809.47 350.32 812.03 348.95 C 811.35 351.27 810.67 353.59 809.99 355.91 C 808.25 355.41 806.56 354.78 804.96 354.00 Z" />
<path fill="#48dbd2" opacity="1.00" d=" M 691.78 355.31 C 693.45 354.83 695.16 354.47 696.87 354.08 C 697.16 354.53 697.75 355.42 698.04 355.87 C 689.98 372.34 681.60 389.74 667.19 401.63 C 666.66 401.16 665.59 400.21 665.06 399.73 C 664.68 395.45 664.14 391.19 663.97 386.90 C 671.10 374.73 681.73 365.06 691.78 355.31 Z" />
<path fill="#4cdbd3" opacity="1.00" d=" M 773.22 356.53 C 771.40 353.50 776.44 354.80 778.15 354.25 C 788.67 364.29 799.51 374.46 807.07 386.99 C 807.14 392.62 806.76 398.51 803.77 403.46 C 789.94 390.56 780.85 373.58 773.22 356.53 Z" />
<path fill="#6bc1f2" opacity="1.00" d=" M 771.12 361.71 C 772.89 369.34 772.73 377.20 773.69 384.93 C 776.36 385.39 779.90 384.69 781.62 387.32 C 786.10 393.55 789.12 400.90 794.76 406.24 C 797.53 408.89 801.70 407.79 805.07 407.27 C 801.85 409.36 797.05 411.43 793.88 408.14 C 787.22 401.97 783.52 393.45 778.91 385.77 C 777.54 386.29 776.18 386.81 774.84 387.34 C 779.09 396.49 784.33 405.23 790.99 412.85 C 786.45 413.48 781.94 414.44 777.72 416.25 C 778.10 417.03 778.85 418.58 779.23 419.35 C 788.68 418.78 797.70 415.76 806.40 412.20 C 805.76 415.82 805.54 419.95 802.53 422.52 C 795.98 428.86 789.70 435.88 786.35 444.49 C 788.22 444.31 790.68 444.90 791.82 442.93 C 795.83 437.55 799.18 431.59 804.44 427.26 C 804.21 436.42 801.07 445.10 799.69 454.08 C 799.24 450.69 798.46 447.35 797.73 444.01 C 794.03 445.11 789.33 448.46 785.91 445.05 C 783.23 443.12 785.21 439.64 786.39 437.42 C 790.17 431.32 795.34 426.21 799.10 420.08 C 792.80 419.67 786.53 420.71 780.25 420.53 C 777.21 420.84 775.70 416.03 778.29 414.51 C 780.82 412.95 783.70 412.12 786.47 411.09 C 781.57 404.26 776.82 397.25 773.66 389.41 C 772.83 390.21 772.01 391.01 771.19 391.81 C 771.02 389.45 770.86 387.10 770.78 384.74 C 770.76 377.06 771.01 369.38 771.12 361.71 Z" />
<path fill="#012b52" opacity="1.00" d=" M 579.82 363.02 C 589.40 363.32 598.59 366.08 607.86 368.20 C 605.43 369.50 602.89 370.60 600.37 371.73 C 593.80 369.27 586.83 368.19 579.87 367.49 C 579.85 366.00 579.82 364.51 579.82 363.02 Z" />
<path fill="#f1e0d6" opacity="1.00" d=" M 877.21 382.97 C 869.24 376.20 858.22 374.58 850.51 367.57 C 863.67 372.35 876.66 378.49 887.32 387.73 C 873.42 385.43 859.93 381.21 846.71 376.43 C 857.39 375.91 866.64 382.54 877.21 382.97 Z" />
<path fill="#032654" opacity="1.00" d=" M 921.02 373.36 C 926.08 379.02 924.68 387.08 925.64 394.03 C 925.36 393.87 924.80 393.54 924.52 393.38 C 923.49 401.63 920.73 409.58 916.47 416.72 C 910.81 426.15 901.89 433.51 891.56 437.31 C 891.39 435.79 891.23 434.27 891.08 432.76 C 898.70 429.40 905.68 424.33 910.47 417.44 C 919.73 404.82 921.65 388.58 921.02 373.36 Z" />
<path fill="#ffffff" opacity="1.00" d=" M 226.03 386.72 C 232.60 384.19 239.33 381.14 243.31 374.99 C 254.82 378.96 267.69 377.54 278.63 383.42 C 283.37 385.82 284.79 391.36 287.60 395.46 C 290.33 400.00 294.91 402.84 298.75 406.32 C 302.24 409.35 302.39 414.40 304.99 418.01 C 308.34 421.69 313.40 423.61 316.03 428.00 C 318.56 432.19 317.96 437.32 318.02 442.00 C 317.85 452.32 318.71 463.40 324.85 472.10 C 328.38 477.51 334.03 481.19 337.25 486.83 C 339.25 490.28 339.55 494.43 341.47 497.91 C 343.58 500.81 346.38 503.12 348.74 505.83 C 332.08 517.27 310.83 520.63 291.10 517.46 C 272.01 514.22 255.06 502.91 242.32 488.64 C 229.09 473.90 220.24 455.72 214.66 436.82 C 213.90 431.85 210.13 428.72 206.53 425.71 C 203.38 418.92 202.38 411.29 200.40 404.08 C 200.86 403.72 201.77 403.01 202.22 402.65 C 209.80 403.61 214.95 397.52 220.58 393.62 C 221.85 395.62 223.12 397.62 224.38 399.63 C 227.07 398.17 231.60 397.05 231.05 393.11 C 230.09 390.51 227.83 388.72 226.03 386.72 Z" />
<path fill="#65c2d0" opacity="1.00" d=" M 637.05 377.71 C 639.39 376.99 641.75 376.32 644.13 375.67 C 642.59 378.11 641.01 380.53 639.47 382.97 C 638.66 381.21 637.86 379.46 637.05 377.71 Z" />
<path fill="#5abeef" opacity="1.00" d=" M 766.55 449.93 C 767.68 428.18 770.10 406.52 770.78 384.74 C 770.86 387.10 771.02 389.45 771.19 391.81 C 772.01 391.01 772.83 390.21 773.66 389.41 C 776.82 397.25 781.57 404.26 786.47 411.09 C 783.70 412.12 780.82 412.95 778.29 414.51 C 775.70 416.03 777.21 420.84 780.25 420.53 C 786.53 420.71 792.80 419.67 799.10 420.08 C 795.34 426.21 790.17 431.32 786.39 437.42 C 785.21 439.64 783.23 443.12 785.91 445.05 C 789.33 448.46 794.03 445.11 797.73 444.01 C 798.46 447.35 799.24 450.69 799.69 454.08 C 799.20 459.38 798.90 464.69 798.79 470.01 C 800.15 470.31 801.53 470.62 802.91 470.93 C 803.52 464.88 803.84 458.79 804.91 452.79 C 804.82 453.44 804.66 454.75 804.58 455.40 C 805.69 455.10 806.84 454.82 807.98 454.53 C 809.54 457.11 811.11 459.72 813.08 462.02 C 814.46 463.15 816.45 463.03 818.12 463.53 C 816.18 453.30 808.81 444.87 808.09 434.35 C 814.27 436.59 816.17 445.98 823.30 445.27 C 822.13 438.48 814.92 435.25 812.36 429.15 C 815.20 423.09 819.26 417.66 822.00 411.52 C 822.99 413.04 824.01 414.56 824.94 416.14 C 829.24 428.27 834.39 440.08 839.00 452.10 C 838.95 459.39 836.41 466.39 836.39 473.70 C 831.19 476.72 825.27 479.09 821.44 483.93 C 822.20 485.16 823.12 486.30 824.08 487.42 C 827.76 486.65 831.12 484.90 834.47 483.24 C 832.64 486.98 830.08 490.53 829.39 494.71 C 829.71 497.91 833.78 499.19 836.11 497.16 C 839.98 493.76 842.18 488.96 845.04 484.77 C 847.28 487.29 849.59 489.76 851.67 492.44 C 853.05 494.35 854.27 496.56 856.36 497.81 C 859.43 498.95 863.15 496.98 863.93 493.79 C 864.96 489.72 864.01 485.51 863.26 481.47 C 862.88 476.51 862.51 471.55 862.03 466.59 C 865.30 468.58 869.92 470.33 869.84 474.92 C 870.54 484.95 874.86 494.10 880.04 502.55 C 881.41 502.24 882.80 501.93 884.20 501.63 C 880.23 492.96 875.00 484.61 874.32 474.82 C 880.88 478.45 887.79 482.16 895.54 481.82 C 895.53 480.50 895.53 479.21 895.53 477.91 C 887.63 476.44 880.37 472.87 873.86 468.25 C 880.13 465.66 886.65 463.76 893.14 461.81 C 892.78 460.41 892.43 459.03 892.09 457.65 C 885.16 458.98 878.53 461.41 871.99 464.01 C 867.99 465.87 864.35 462.44 860.94 460.82 C 860.24 453.79 858.31 446.97 856.90 440.07 C 868.44 443.12 880.71 442.40 891.56 437.31 C 901.89 433.51 910.81 426.15 916.47 416.72 C 921.24 434.07 922.51 452.14 924.28 469.98 C 925.40 486.26 927.89 502.93 924.04 519.04 C 922.55 525.76 917.52 532.87 910.02 533.05 C 899.71 533.33 891.20 526.60 881.93 523.12 C 861.66 513.69 839.14 512.25 817.42 508.53 C 808.21 507.10 798.73 505.88 790.25 501.78 C 781.74 497.60 775.55 490.17 769.35 483.24 C 765.71 472.53 766.26 461.06 766.55 449.93 Z" />
<path fill="#032953" opacity="1.00" d=" M 545.28 395.12 C 545.27 391.95 545.55 388.80 546.09 385.68 C 547.58 386.67 549.08 387.67 550.58 388.67 C 551.93 406.51 561.73 423.79 578.07 431.87 C 579.06 433.65 579.92 435.50 580.80 437.35 C 569.74 433.55 560.17 425.91 554.18 415.86 C 550.10 408.89 548.02 401.00 546.59 393.12 C 546.15 393.78 545.71 394.45 545.28 395.12 Z" />
<path fill="#002154" opacity="1.00" d=" M 692.15 385.99 C 693.43 386.23 694.72 386.47 696.02 386.71 C 692.52 396.57 686.47 405.27 679.68 413.14 C 684.08 414.04 688.52 414.72 692.98 415.31 C 693.03 416.67 693.08 418.04 693.14 419.42 C 683.17 419.39 673.71 415.95 664.60 412.25 C 663.48 407.82 663.11 403.26 663.25 398.71 C 663.95 402.14 663.93 406.68 667.49 408.52 C 670.25 410.05 674.22 411.52 676.77 408.81 C 683.65 402.55 687.29 393.75 692.15 385.99 Z" />
<path fill="#022358" opacity="1.00" d=" M 774.84 387.34 C 776.18 386.81 777.54 386.29 778.91 385.77 C 783.52 393.45 787.22 401.97 793.88 408.14 C 797.05 411.43 801.85 409.36 805.07 407.27 C 805.99 406.66 806.88 405.98 807.77 405.30 C 808.00 410.75 807.46 416.43 809.48 421.63 C 809.83 421.96 810.53 422.60 810.88 422.93 C 811.40 423.36 812.42 424.22 812.93 424.65 C 816.36 419.38 819.02 413.67 822.14 408.23 C 823.13 410.84 824.03 413.49 824.94 416.14 C 824.01 414.56 822.99 413.04 822.00 411.52 C 819.26 417.66 815.20 423.09 812.36 429.15 C 814.92 435.25 822.13 438.48 823.30 445.27 C 816.17 445.98 814.27 436.59 808.09 434.35 C 808.81 444.87 816.18 453.30 818.12 463.53 C 816.45 463.03 814.46 463.15 813.08 462.02 C 810.96 456.76 809.01 451.40 806.08 446.51 C 805.64 448.59 805.22 450.68 804.91 452.79 C 803.84 458.79 803.52 464.88 802.91 470.93 C 801.53 470.62 800.15 470.31 798.79 470.01 C 798.90 464.69 799.20 459.38 799.69 454.08 C 801.07 445.10 804.21 436.42 804.44 427.26 C 799.18 431.59 795.83 437.55 791.82 442.93 C 790.68 444.90 788.22 444.31 786.35 444.49 C 789.70 435.88 795.98 428.86 802.53 422.52 C 805.54 419.95 805.76 415.82 806.40 412.20 C 797.70 415.76 788.68 418.78 779.23 419.35 C 778.85 418.58 778.10 417.03 777.72 416.25 C 781.94 414.44 786.45 413.48 790.99 412.85 C 784.33 405.23 779.09 396.49 774.84 387.34 Z" />
<path fill="#5cbfcb" opacity="1.00" d=" M 584.68 392.33 C 590.21 391.46 595.63 390.04 601.15 389.11 C 598.74 391.83 596.21 394.43 593.79 397.14 C 593.74 395.80 593.69 394.48 593.65 393.15 C 590.66 392.87 587.67 392.58 584.68 392.33 Z" />
<path fill="#8bd8f6" opacity="1.00" d=" M 545.28 395.12 C 545.71 394.45 546.15 393.78 546.59 393.12 C 548.02 401.00 550.10 408.89 554.18 415.86 C 548.63 443.54 545.78 471.78 545.02 500.00 C 545.17 509.50 545.21 519.99 551.07 527.99 C 555.67 533.97 564.30 534.70 570.87 531.83 C 582.21 527.29 592.66 520.43 604.72 517.72 C 611.59 517.56 618.45 518.12 625.29 518.70 C 611.59 521.24 597.84 524.68 585.63 531.62 C 578.16 535.54 571.79 541.14 564.80 545.81 C 559.59 549.36 552.26 550.89 546.68 547.30 C 540.87 543.41 538.81 536.12 537.84 529.57 C 536.31 516.43 536.74 503.16 537.28 489.97 C 538.06 465.47 540.34 441.04 542.92 416.67 C 543.68 409.48 545.38 402.38 545.28 395.12 Z" />
<path fill="#8ad6f4" opacity="1.00" d=" M 924.52 393.38 C 924.80 393.54 925.36 393.87 925.64 394.03 C 930.33 431.85 933.60 469.90 934.42 508.01 C 934.30 519.12 935.11 530.94 930.10 541.20 C 927.00 547.61 919.06 551.22 912.28 548.62 C 905.03 545.82 899.36 540.23 892.88 536.11 C 874.17 523.13 851.08 519.55 829.05 516.24 C 814.78 514.04 799.53 513.83 786.81 506.16 C 778.17 501.27 771.96 492.76 769.35 483.24 C 775.55 490.17 781.74 497.60 790.25 501.78 C 798.73 505.88 808.21 507.10 817.42 508.53 C 839.14 512.25 861.66 513.69 881.93 523.12 C 891.20 526.60 899.71 533.33 910.02 533.05 C 917.52 532.87 922.55 525.76 924.04 519.04 C 927.89 502.93 925.40 486.26 924.28 469.98 C 922.51 452.14 921.24 434.07 916.47 416.72 C 920.73 409.58 923.49 401.63 924.52 393.38 Z" />
<path fill="#f6ebe4" opacity="1.00" d=" M 812.21 400.67 C 812.99 403.13 813.91 405.54 814.81 407.96 C 816.25 405.95 817.71 403.94 819.43 402.15 C 818.33 409.70 814.45 416.33 810.88 422.93 C 810.53 422.60 809.83 421.96 809.48 421.63 C 810.97 414.73 811.57 407.69 812.21 400.67 Z" />
<path fill="#58c8d8" opacity="1.00" d=" M 643.69 423.14 C 645.30 419.22 647.09 415.38 648.99 411.59 C 650.32 414.03 651.61 416.50 653.09 418.86 C 653.43 419.41 654.11 420.52 654.46 421.08 C 650.92 422.04 647.32 422.71 643.69 423.14 Z" />
<path fill="#022255" opacity="1.00" d=" M 661.63 422.15 C 662.86 419.68 664.10 417.20 665.09 414.62 C 665.69 417.66 666.70 420.74 669.07 422.88 C 675.42 429.15 681.52 436.07 684.67 444.56 C 682.78 444.34 680.31 444.92 679.23 442.90 C 675.42 437.47 671.91 431.73 666.78 427.39 C 667.84 441.80 673.64 455.63 672.59 470.28 C 671.31 470.51 670.02 470.76 668.75 471.01 C 667.85 462.81 667.38 454.51 665.09 446.54 C 660.80 452.09 661.06 462.39 653.14 464.11 C 654.42 453.54 662.58 445.19 663.03 434.43 C 658.52 437.64 654.86 441.82 651.16 445.89 C 650.27 445.74 648.51 445.45 647.63 445.30 C 649.92 438.72 655.79 434.51 659.83 429.09 C 657.99 426.45 656.16 423.80 654.46 421.08 C 654.11 420.52 653.43 419.41 653.09 418.86 C 655.40 420.43 657.89 421.70 660.40 422.93 C 660.71 422.74 661.32 422.34 661.63 422.15 Z" />
<path fill="#5ebeee" opacity="1.00" d=" M 643.69 423.14 C 647.32 422.71 650.92 422.04 654.46 421.08 C 656.16 423.80 657.99 426.45 659.83 429.09 C 655.79 434.51 649.92 438.72 647.63 445.30 C 648.51 445.45 650.27 445.74 651.16 445.89 C 654.86 441.82 658.52 437.64 663.03 434.43 C 662.58 445.19 654.42 453.54 653.14 464.11 C 661.06 462.39 660.80 452.09 665.09 446.54 C 667.38 454.51 667.85 462.81 668.75 471.01 C 668.28 470.82 667.35 470.43 666.88 470.24 C 665.83 468.29 664.79 466.34 663.75 464.39 C 660.05 465.61 654.47 468.75 651.91 464.06 C 650.72 459.42 651.59 454.55 651.24 449.81 C 646.76 453.77 642.07 457.61 638.40 462.36 C 635.49 465.94 636.87 471.86 641.12 473.72 C 645.92 476.31 652.07 479.69 650.90 486.20 C 647.50 480.10 641.03 477.08 635.21 473.82 C 635.51 465.44 630.87 457.41 633.00 449.06 C 636.99 440.60 639.73 431.62 643.69 423.14 Z" />
<path fill="#07204b" opacity="1.00" d=" M 194.50 430.35 C 196.94 429.47 199.46 428.81 202.01 428.29 C 207.00 429.76 211.25 432.96 214.66 436.82 C 220.24 455.72 229.09 473.90 242.32 488.64 C 255.06 502.91 272.01 514.22 291.10 517.46 C 310.83 520.63 332.08 517.27 348.74 505.83 C 372.23 490.48 387.96 465.44 395.77 438.84 C 395.80 439.40 395.87 440.52 395.90 441.09 C 399.11 435.72 402.69 430.20 409.00 428.19 C 411.54 428.87 414.10 429.51 416.61 430.33 C 417.90 431.23 419.15 432.21 420.33 433.27 C 423.29 436.22 424.13 440.55 422.64 444.44 C 417.75 460.32 411.24 475.85 402.19 489.84 C 400.77 492.02 399.32 494.19 397.77 496.27 C 389.91 506.92 380.63 516.57 369.97 524.42 C 358.34 532.96 345.31 539.76 331.27 543.26 C 327.33 544.36 323.17 544.84 319.45 546.61 C 317.16 557.47 320.58 568.78 318.33 579.64 C 315.81 585.11 315.94 591.14 316.34 597.02 C 317.56 633.41 322.04 672.85 345.97 702.02 C 369.82 731.67 412.23 742.75 448.20 731.73 C 478.64 723.50 504.09 702.90 523.69 678.78 C 526.50 676.57 529.26 673.48 532.93 672.97 C 537.45 673.92 542.58 676.49 544.26 681.07 C 543.52 685.14 541.16 688.67 539.54 692.44 C 513.39 727.59 473.30 753.66 429.08 757.74 C 389.78 760.66 349.04 743.47 325.20 711.78 C 312.12 695.00 304.74 674.56 300.38 653.92 C 295.91 631.90 294.38 609.36 294.63 586.92 C 294.68 584.03 292.77 581.66 292.14 578.94 C 290.76 568.25 293.48 557.28 291.30 546.68 C 286.80 544.70 281.81 544.24 277.17 542.68 C 246.35 533.04 220.16 510.65 204.38 482.64 C 197.43 470.77 192.67 457.77 188.28 444.78 C 186.79 440.92 187.27 436.17 190.68 433.48 C 191.89 432.36 193.16 431.31 194.50 430.35 Z" />
<path fill="#1f8fc9" opacity="1.00" d=" M 196.27 434.94 C 199.71 433.08 203.64 431.35 207.63 432.34 C 210.52 436.03 211.30 440.82 212.91 445.12 C 219.65 466.77 232.00 486.91 249.34 501.67 C 264.49 515.19 284.63 523.21 305.00 522.99 C 328.58 523.54 351.79 512.93 367.92 495.94 C 381.64 481.88 392.05 464.64 397.94 445.89 C 399.69 441.34 400.30 436.20 403.31 432.24 C 407.35 431.43 411.24 433.17 414.73 435.02 C 410.54 447.95 407.55 461.44 400.03 473.01 C 391.42 492.70 375.82 508.13 359.10 521.11 C 350.22 527.41 339.97 531.43 329.59 534.50 C 324.64 535.94 319.52 538.07 316.63 542.59 C 313.99 546.54 314.23 551.47 314.26 556.01 C 314.44 562.80 314.16 569.60 314.56 576.40 C 309.83 576.85 302.66 578.24 300.72 572.38 C 298.52 562.10 301.91 550.49 295.84 541.12 C 290.85 534.19 281.59 533.51 274.14 530.83 C 260.21 526.20 248.47 516.92 237.25 507.76 C 225.41 496.14 215.63 482.40 208.61 467.36 C 202.73 457.27 200.61 445.67 196.27 434.94 Z" />
<path fill="#f3e9e6" opacity="1.00" d=" M 592.65 437.15 C 596.40 435.17 600.28 433.45 604.21 431.84 C 606.28 434.07 609.01 435.56 612.08 435.81 C 605.79 437.77 599.14 437.67 592.65 437.15 Z" />
<path fill="#1474b4" opacity="1.00" d=" M 192.22 441.77 C 190.81 438.48 194.03 436.23 195.94 434.09 L 196.27 434.94 C 200.61 445.67 202.73 457.27 208.61 467.36 C 215.63 482.40 225.41 496.14 237.25 507.76 C 248.47 516.92 260.21 526.20 274.14 530.83 C 281.59 533.51 290.85 534.19 295.84 541.12 C 301.91 550.49 298.52 562.10 300.72 572.38 C 302.66 578.24 309.83 576.85 314.56 576.40 C 314.34 582.43 307.48 582.62 302.94 582.35 C 300.19 582.24 296.13 581.50 296.09 578.00 C 295.61 567.74 297.43 557.37 295.88 547.16 C 295.17 542.51 289.98 541.67 286.24 540.66 C 254.17 533.24 226.69 511.09 209.77 483.21 C 202.34 470.15 195.99 456.36 192.22 441.77 Z" />
<path fill="#1272b1" opacity="1.00" d=" M 414.73 435.02 L 415.03 434.14 C 417.36 436.30 419.86 438.98 418.44 442.42 C 410.59 472.54 393.44 500.55 368.66 519.68 C 353.96 532.29 335.07 538.01 316.63 542.59 C 319.52 538.07 324.64 535.94 329.59 534.50 C 339.97 531.43 350.22 527.41 359.10 521.11 C 375.82 508.13 391.42 492.70 400.03 473.01 C 407.55 461.44 410.54 447.95 414.73 435.02 Z" />
<path fill="#ffffff" opacity="1.00" d=" M 720.18 447.91 C 721.10 444.54 725.32 444.45 727.73 446.25 C 731.96 449.28 732.87 454.92 736.32 458.62 C 740.82 460.22 745.71 461.04 750.49 461.33 C 755.38 459.81 757.37 454.56 759.10 450.22 C 760.06 450.42 761.01 450.62 761.98 450.84 C 761.80 457.00 761.65 463.18 761.89 469.35 C 760.78 466.83 759.48 464.41 758.21 461.98 C 755.72 468.96 755.54 478.35 748.61 482.58 C 737.07 484.13 726.15 478.42 715.09 475.95 C 713.66 477.20 712.24 478.46 710.82 479.72 C 710.61 476.30 710.07 472.92 709.44 469.57 C 709.33 463.45 709.40 457.33 709.23 451.21 C 709.87 449.63 710.60 448.09 711.33 446.55 C 715.10 449.88 715.84 454.84 716.83 459.48 C 717.18 462.84 722.75 464.63 724.09 461.04 C 726.92 456.27 721.65 452.16 720.18 447.91 Z" />
<path fill="#72bbed" opacity="1.00" d=" M 806.08 446.51 C 809.01 451.40 810.96 456.76 813.08 462.02 C 811.11 459.72 809.54 457.11 807.98 454.53 C 806.84 454.82 805.69 455.10 804.58 455.40 C 804.66 454.75 804.82 453.44 804.91 452.79 C 805.22 450.68 805.64 448.59 806.08 446.51 Z" />
<path fill="#002155" opacity="1.00" d=" M 628.60 462.45 C 627.76 457.45 630.34 453.04 633.00 449.06 C 630.87 457.41 635.51 465.44 635.21 473.82 C 641.03 477.08 647.50 480.10 650.90 486.20 C 643.71 487.59 639.51 479.87 632.88 478.57 C 633.53 485.36 638.49 490.48 640.09 496.96 C 638.45 496.61 636.78 496.37 635.22 495.77 C 631.73 490.26 627.50 484.05 629.04 477.17 C 630.13 472.28 630.81 467.15 628.60 462.45 Z" />
<path fill="#002256" opacity="1.00" d=" M 839.00 452.10 C 840.44 455.83 841.44 459.70 842.40 463.57 C 840.77 468.29 841.79 473.23 842.29 478.04 C 843.01 485.16 838.50 491.20 834.84 496.84 C 833.51 496.62 832.20 496.41 830.89 496.21 C 833.34 490.32 837.49 485.10 838.27 478.59 C 833.02 480.61 828.27 483.69 824.08 487.42 C 823.12 486.30 822.20 485.16 821.44 483.93 C 825.27 479.09 831.19 476.72 836.39 473.70 C 836.41 466.39 838.95 459.39 839.00 452.10 Z" />
<path fill="#012051" opacity="1.00" d=" M 578.58 458.04 C 586.17 457.99 592.98 461.49 599.91 464.05 C 604.11 465.91 607.61 461.87 610.97 459.97 C 610.82 464.12 610.21 468.24 609.17 472.27 C 609.19 470.44 609.15 468.62 609.13 466.81 C 606.05 468.80 601.86 470.57 601.64 474.81 C 600.37 483.67 597.78 492.44 592.96 500.05 C 591.90 501.91 589.71 502.50 587.92 503.39 C 589.39 493.50 596.28 485.28 597.01 475.09 C 590.18 478.44 583.13 481.86 575.35 481.95 C 575.45 476.91 580.96 476.80 584.56 475.43 C 589.32 474.01 593.46 471.15 597.37 468.17 C 591.33 465.23 584.86 463.38 578.41 461.62 C 578.46 460.42 578.52 459.23 578.58 458.04 Z" />
<path fill="#f3e3dd" opacity="1.00" d=" M 855.50 457.59 C 857.59 469.58 860.08 481.79 859.05 494.01 C 852.71 484.84 850.85 473.39 847.50 462.92 C 851.58 467.67 853.08 473.83 855.71 479.36 C 855.52 472.10 854.68 464.84 855.50 457.59 Z" />
<path fill="#002154" opacity="1.00" d=" M 871.99 464.01 C 878.53 461.41 885.16 458.98 892.09 457.65 C 892.43 459.03 892.78 460.41 893.14 461.81 C 886.65 463.76 880.13 465.66 873.86 468.25 C 880.37 472.87 887.63 476.44 895.53 477.91 C 895.53 479.21 895.53 480.50 895.54 481.82 C 887.79 482.16 880.88 478.45 874.32 474.82 C 875.00 484.61 880.23 492.96 884.20 501.63 C 882.80 501.93 881.41 502.24 880.04 502.55 C 874.86 494.10 870.54 484.95 869.84 474.92 C 869.92 470.33 865.30 468.58 862.03 466.59 C 862.51 471.55 862.88 476.51 863.26 481.47 C 859.31 475.22 860.81 467.76 860.94 460.82 C 864.35 462.44 867.99 465.87 871.99 464.01 Z" />
<path fill="#f8f9f9" opacity="1.00" d=" M 758.21 461.98 C 759.48 464.41 760.78 466.83 761.89 469.35 C 762.80 478.19 764.34 487.26 769.01 494.98 C 776.22 507.68 790.06 515.00 804.08 517.46 C 804.25 518.08 804.59 519.31 804.75 519.92 C 796.50 527.21 786.73 533.74 775.78 535.86 C 772.61 522.04 765.97 509.27 759.16 496.89 C 756.96 492.98 755.26 487.32 749.70 487.72 C 752.25 496.76 755.94 505.70 761.83 513.10 C 764.97 517.29 761.89 523.44 765.70 527.28 C 769.56 531.40 773.46 535.68 778.28 538.72 C 784.69 542.18 791.40 537.28 797.94 536.79 C 796.15 551.18 791.40 565.61 781.54 576.55 C 774.34 584.28 766.88 592.60 764.19 603.07 C 763.32 614.46 769.25 625.38 767.75 636.79 C 764.21 642.74 758.29 646.85 753.12 651.31 C 752.95 655.06 752.96 658.82 753.16 662.57 C 758.00 665.22 763.95 669.00 762.56 675.47 C 760.30 672.39 757.98 669.36 755.70 666.31 C 752.21 666.24 748.71 666.26 745.28 665.66 C 744.77 665.30 743.74 664.59 743.23 664.24 C 739.57 665.75 735.69 667.34 733.36 670.75 C 724.09 663.16 711.27 667.18 700.35 666.26 C 700.37 672.26 700.31 678.27 700.25 684.27 C 692.87 678.18 695.45 667.57 692.29 659.49 C 688.44 650.95 687.29 641.20 688.97 632.00 C 690.71 624.44 689.98 616.50 687.88 609.10 C 686.23 603.63 681.04 600.36 678.70 595.30 C 677.17 590.16 680.79 584.83 679.30 579.74 C 676.55 577.03 671.97 578.29 668.44 577.72 C 666.59 575.59 665.14 571.49 661.61 572.59 C 653.25 574.58 644.68 575.63 636.09 575.82 C 631.37 575.87 627.66 572.50 625.00 568.96 C 619.73 562.04 612.82 555.71 611.05 546.83 C 610.11 541.87 608.96 536.47 610.63 531.59 C 612.90 529.67 615.55 528.13 617.07 525.45 C 631.57 522.18 646.34 520.46 661.05 518.41 C 671.73 516.94 682.55 513.90 691.22 507.25 C 703.12 498.52 707.96 483.67 709.44 469.57 C 710.07 472.92 710.61 476.30 710.82 479.72 C 712.24 478.46 713.66 477.20 715.09 475.95 C 726.15 478.42 737.07 484.13 748.61 482.58 C 755.54 478.35 755.72 468.96 758.21 461.98 Z" />
<path fill="#69b5e9" opacity="1.00" d=" M 628.60 462.45 C 630.81 467.15 630.13 472.28 629.04 477.17 C 627.50 484.05 631.73 490.26 635.22 495.77 C 630.15 492.45 628.49 486.30 625.68 481.29 C 623.12 486.26 621.90 491.98 618.21 496.32 C 621.58 485.01 626.29 474.07 628.60 462.45 Z" />
<path fill="#6fc2f3" opacity="1.00" d=" M 842.29 478.04 C 841.79 473.23 840.77 468.29 842.40 463.57 C 845.10 473.32 848.98 482.69 851.67 492.44 C 849.59 489.76 847.28 487.29 845.04 484.77 C 842.18 488.96 839.98 493.76 836.11 497.16 C 833.78 499.19 829.71 497.91 829.39 494.71 C 830.08 490.53 832.64 486.98 834.47 483.24 C 831.12 484.90 827.76 486.65 824.08 487.42 C 828.27 483.69 833.02 480.61 838.27 478.59 C 837.49 485.10 833.34 490.32 830.89 496.21 C 832.20 496.41 833.51 496.62 834.84 496.84 C 838.50 491.20 843.01 485.16 842.29 478.04 Z" />
<path fill="#f3e6df" opacity="1.00" d=" M 613.11 475.61 C 613.76 477.24 614.50 478.84 615.24 480.45 C 616.47 479.97 617.71 479.50 618.96 479.04 C 617.11 484.27 616.46 490.39 612.02 494.24 C 611.36 488.00 612.35 481.79 613.11 475.61 Z" />
<path fill="#89d4f6" opacity="1.00" d=" M 688.32 497.32 C 694.46 493.20 698.23 486.79 702.52 480.98 L 702.26 482.02 C 699.32 494.63 689.54 505.08 677.45 509.49 C 662.89 514.82 647.16 515.12 631.98 517.51 C 636.72 515.00 641.35 512.29 646.12 509.83 C 660.54 507.50 676.51 507.10 688.32 497.32 Z" />
<path fill="#f9f9f9" opacity="1.00" d=" M 369.97 524.42 C 380.63 516.57 389.91 506.92 397.77 496.27 C 399.15 506.43 398.38 517.35 403.44 526.61 C 405.55 530.05 410.03 528.08 412.94 526.97 C 417.78 525.41 419.28 519.85 423.39 517.38 C 425.66 516.94 429.22 517.59 429.90 520.15 C 429.34 526.54 425.12 532.18 425.76 538.76 C 429.55 538.53 434.85 536.59 437.23 540.75 C 439.71 546.24 435.34 552.59 437.97 558.03 C 440.48 561.47 444.90 558.89 448.09 558.06 C 449.51 558.67 450.94 559.29 452.37 559.92 C 457.25 553.73 463.10 547.30 471.51 546.65 C 476.34 545.56 478.35 552.95 483.21 551.28 C 489.49 549.76 495.91 548.25 502.42 549.29 C 503.04 552.68 502.60 556.98 505.70 559.29 C 511.77 564.13 519.64 565.41 526.58 568.48 C 532.64 572.99 532.64 581.94 538.24 586.81 C 541.95 586.95 545.66 586.44 549.38 586.48 C 536.18 591.39 525.17 601.74 519.80 614.79 C 513.63 628.80 514.12 645.38 520.97 659.05 C 523.17 663.37 526.11 667.24 529.16 671.00 C 527.36 673.61 525.62 676.27 523.69 678.78 C 504.09 702.90 478.64 723.50 448.20 731.73 C 455.10 726.37 457.42 717.79 461.29 710.37 C 464.69 702.44 463.73 693.58 465.32 685.25 C 467.14 675.55 469.52 665.47 467.29 655.64 C 464.43 647.90 453.91 647.01 450.92 639.24 C 447.63 631.11 445.64 622.44 441.20 614.79 C 438.71 610.85 439.10 606.16 439.72 601.77 C 440.47 596.61 437.96 591.21 440.27 586.28 C 443.33 579.34 449.41 573.62 449.78 565.65 C 445.71 566.90 441.07 569.07 436.96 566.78 C 430.27 563.42 426.98 556.29 421.47 551.62 C 415.92 548.33 409.86 545.87 404.87 541.67 C 390.60 544.40 379.97 532.53 369.97 524.42 Z" />
<path fill="#7ed2f4" opacity="1.00" d=" M 604.72 517.72 C 618.27 513.97 632.14 511.32 646.12 509.83 C 641.35 512.29 636.72 515.00 631.98 517.51 C 629.75 517.95 627.52 518.35 625.29 518.70 C 618.45 518.12 611.59 517.56 604.72 517.72 Z" />
<path fill="#ffffff" opacity="1.00" d=" M 331.27 543.26 C 345.31 539.76 358.34 532.96 369.97 524.42 C 379.97 532.53 390.60 544.40 404.87 541.67 C 409.86 545.87 415.92 548.33 421.47 551.62 C 426.98 556.29 430.27 563.42 436.96 566.78 C 441.07 569.07 445.71 566.90 449.78 565.65 C 449.41 573.62 443.33 579.34 440.27 586.28 C 437.96 591.21 440.47 596.61 439.72 601.77 C 439.10 606.16 438.71 610.85 441.20 614.79 C 445.64 622.44 447.63 631.11 450.92 639.24 C 453.91 647.01 464.43 647.90 467.29 655.64 C 469.52 665.47 467.14 675.55 465.32 685.25 C 463.73 693.58 464.69 702.44 461.29 710.37 C 457.42 717.79 455.10 726.37 448.20 731.73 C 412.23 742.75 369.82 731.67 345.97 702.02 C 322.04 672.85 317.56 633.41 316.34 597.02 C 315.94 591.14 315.81 585.11 318.33 579.64 C 320.58 568.78 317.16 557.47 319.45 546.61 C 323.17 544.84 327.33 544.36 331.27 543.26 Z" />
<path fill="#0e1e43" opacity="1.00" d=" M 549.38 586.48 C 564.42 581.24 582.00 582.79 595.42 591.58 C 610.51 601.16 619.74 619.18 618.85 637.01 C 618.68 652.90 610.18 668.12 597.55 677.53 C 583.17 688.02 563.44 690.33 547.01 683.45 C 544.69 686.58 542.34 689.71 539.54 692.44 C 541.16 688.67 543.52 685.14 544.26 681.07 C 542.58 676.49 537.45 673.92 532.93 672.97 C 529.26 673.48 526.50 676.57 523.69 678.78 C 525.62 676.27 527.36 673.61 529.16 671.00 C 526.11 667.24 523.17 663.37 520.97 659.05 C 522.09 657.86 523.21 656.68 524.34 655.51 C 533.94 677.31 561.59 688.95 583.73 679.72 C 599.70 673.89 611.77 658.91 613.98 642.05 C 616.73 625.04 609.06 606.91 595.01 596.96 C 583.00 587.86 566.46 585.41 552.27 590.37 C 539.35 594.65 528.71 604.94 523.51 617.45 C 522.27 616.56 521.03 615.67 519.80 614.79 C 525.17 601.74 536.18 591.39 549.38 586.48 Z" />
<path fill="#1773b4" opacity="1.00" d=" M 299.05 586.20 C 303.31 586.21 307.57 586.22 311.83 586.20 C 311.81 589.22 311.79 592.24 311.74 595.27 C 311.50 592.51 311.21 589.77 310.93 587.02 C 308.69 587.06 306.44 587.10 304.20 587.14 C 303.66 605.45 305.38 623.79 308.19 641.87 C 310.99 654.72 313.16 667.96 319.17 679.81 C 324.90 691.51 330.61 703.69 340.20 712.80 C 367.44 742.44 411.50 753.04 450.13 744.02 C 465.39 738.97 480.91 733.59 494.07 724.10 C 504.32 716.49 514.91 709.01 523.01 699.01 C 528.33 692.26 534.88 686.56 539.71 679.42 C 540.80 679.96 541.87 680.51 542.97 681.06 C 524.63 706.63 500.87 729.21 471.73 741.84 C 461.35 746.72 450.36 750.52 438.92 751.85 C 394.83 760.31 346.69 739.13 323.06 700.96 C 302.13 666.79 299.07 625.32 299.05 586.20 Z" />
<path fill="#2491cc" opacity="1.00" d=" M 304.20 587.14 C 306.44 587.10 308.69 587.06 310.93 587.02 C 311.21 589.77 311.50 592.51 311.74 595.27 C 312.90 620.83 314.94 646.72 323.44 671.04 C 323.07 674.39 321.34 677.31 319.17 679.81 C 313.16 667.96 310.99 654.72 308.19 641.87 C 305.38 623.79 303.66 605.45 304.20 587.14 Z" />
<path fill="#b2cfe2" opacity="1.00" d=" M 552.27 590.37 C 566.46 585.41 583.00 587.86 595.01 596.96 C 609.06 606.91 616.73 625.04 613.98 642.05 C 611.77 658.91 599.70 673.89 583.73 679.72 C 561.59 688.95 533.94 677.31 524.34 655.51 C 519.05 643.58 518.73 629.60 523.51 617.45 C 528.71 604.94 539.35 594.65 552.27 590.37 Z" />
<path fill="#041f4f" opacity="1.00" d=" M 560.31 602.33 C 569.27 600.46 579.01 602.23 586.54 607.50 C 597.92 615.26 603.43 630.45 599.84 643.73 C 597.36 652.42 591.74 660.41 583.73 664.81 C 570.50 672.32 552.10 669.54 542.21 657.79 C 533.36 647.97 531.16 632.86 536.84 620.92 C 541.04 611.41 550.15 604.36 560.31 602.33 Z" />
<path fill="#0b427a" opacity="1.00" d=" M 858.39 605.67 C 866.00 603.99 874.46 606.48 879.60 612.43 C 886.25 619.72 886.44 631.72 880.42 639.45 C 874.87 646.88 864.24 649.71 855.65 646.39 C 847.70 643.50 841.68 635.57 841.73 627.02 C 841.54 617.25 848.56 607.44 858.39 605.67 Z" />
<path fill="#1575af" opacity="1.00" d=" M 561.35 606.42 C 574.05 603.62 588.07 610.67 593.59 622.41 C 599.09 634.44 596.05 650.16 585.49 658.47 C 573.25 668.35 553.31 665.62 543.95 653.06 C 538.35 645.78 537.57 635.95 539.19 627.19 C 541.52 616.57 550.87 608.51 561.35 606.42 Z" />
<path fill="#0b427a" opacity="1.00" d=" M 777.78 605.80 C 780.92 605.76 784.07 605.75 787.22 605.75 C 790.18 615.18 793.19 624.60 795.90 634.11 C 799.10 625.53 801.24 616.61 804.08 607.92 C 804.94 604.27 809.56 606.20 812.26 605.59 C 815.65 614.98 818.38 624.57 821.42 634.07 C 824.62 624.75 826.90 615.14 829.98 605.77 C 833.09 605.74 836.20 605.74 839.32 605.78 C 835.05 619.68 830.08 633.35 825.78 647.24 C 823.05 647.09 819.94 647.97 817.48 646.69 C 813.86 638.01 811.80 628.75 808.58 619.92 C 806.01 628.45 803.37 636.97 800.23 645.30 C 798.99 649.11 794.10 646.85 791.12 647.32 C 786.67 633.48 782.20 619.65 777.78 605.80 Z" />
<path fill="#0c447c" opacity="1.00" d=" M 891.87 605.76 C 899.00 605.87 906.13 605.47 913.26 605.81 C 919.36 606.80 925.21 611.39 925.36 617.99 C 926.36 624.07 922.34 629.19 917.71 632.55 C 920.76 637.48 923.90 642.36 927.08 647.21 C 923.73 647.22 920.39 647.22 917.06 647.22 C 914.61 643.35 912.24 639.44 909.63 635.70 C 908.01 632.22 903.71 634.02 900.72 633.75 C 900.69 638.14 900.63 642.53 900.64 646.93 C 897.72 647.02 894.81 647.09 891.90 647.14 C 891.65 633.35 891.88 619.56 891.87 605.76 Z" />
<path fill="#032953" opacity="1.00" d=" M 933.67 605.70 C 936.45 605.76 939.25 605.79 942.05 606.05 C 942.48 617.07 942.11 628.10 942.23 639.13 C 949.01 639.26 955.80 639.28 962.60 639.32 C 962.58 641.84 962.57 644.37 962.60 646.90 C 952.92 647.19 943.22 647.33 933.54 646.86 C 933.70 633.14 933.43 619.42 933.67 605.70 Z" />
<path fill="#0a3f7a" opacity="1.00" d=" M 968.66 605.65 C 978.16 606.01 988.53 603.87 997.22 608.84 C 1008.76 615.51 1010.07 634.29 999.32 642.32 C 990.63 649.14 978.93 646.69 968.73 647.04 C 968.56 633.24 968.79 619.45 968.66 605.65 Z" />
<path fill="#0b427e" opacity="1.00" d=" M 935.18 621.34 C 935.84 616.48 934.66 610.98 937.96 606.86 C 939.19 608.69 940.98 610.51 940.73 612.92 C 940.48 621.93 941.87 630.90 941.21 639.91 C 948.00 640.40 954.84 639.75 961.59 640.83 C 961.18 643.05 961.16 646.48 958.01 646.21 C 950.64 646.14 943.29 645.02 935.91 645.12 C 934.47 637.28 934.24 629.25 935.18 621.34 Z" />
<path fill="#042052" opacity="1.00" d=" M 563.33 612.45 C 575.42 609.73 587.74 619.15 589.81 631.01 C 591.26 639.95 587.10 649.53 579.62 654.62 C 572.27 659.60 561.81 659.64 554.58 654.40 C 546.39 648.58 541.81 637.27 545.64 627.64 C 548.04 619.68 555.17 613.73 563.33 612.45 Z" />
<path fill="#fefffe" opacity="1.00" d=" M 860.42 613.63 C 864.06 612.72 868.13 613.53 871.02 615.98 C 877.26 621.07 877.24 631.92 871.03 637.03 C 865.25 641.71 855.29 639.87 852.07 632.99 C 848.23 625.74 852.25 615.53 860.42 613.63 Z" />
<path fill="#fbfefe" opacity="1.00" d=" M 977.33 613.28 C 981.92 613.48 986.78 612.94 991.12 614.86 C 999.05 618.60 1000.25 631.11 993.60 636.59 C 988.93 640.16 982.71 639.33 977.22 639.33 C 977.45 630.65 977.50 621.96 977.33 613.28 Z" />
<path fill="#f7fdfd" opacity="1.00" d=" M 900.56 613.68 C 904.87 613.74 909.41 612.91 913.56 614.43 C 917.93 616.31 917.94 623.59 913.34 625.18 C 909.26 626.21 905.00 625.67 900.85 625.77 C 900.69 621.73 900.59 617.71 900.56 613.68 Z" />
<path fill="#09183b" opacity="1.00" d=" M 519.80 614.79 C 521.03 615.67 522.27 616.56 523.51 617.45 C 518.73 629.60 519.05 643.58 524.34 655.51 C 523.21 656.68 522.09 657.86 520.97 659.05 C 514.12 645.38 513.63 628.80 519.80 614.79 Z" />
<path fill="#bad6e6" opacity="1.00" d=" M 561.38 617.43 C 568.26 615.05 576.49 617.20 581.10 622.90 C 588.11 630.87 586.71 644.78 577.82 650.80 C 569.51 656.60 556.80 654.22 551.60 645.38 C 545.21 635.64 550.05 620.83 561.38 617.43 Z" />
<path fill="#0b1c49" opacity="1.00" d=" M 965.41 665.67 C 975.09 664.10 985.93 668.52 990.67 677.35 C 996.31 687.13 993.59 700.79 984.57 707.60 C 973.51 716.43 955.03 713.45 948.28 700.69 C 940.11 687.19 949.52 667.28 965.41 665.67 Z" />
<path fill="#0b1c4b" opacity="1.00" d=" M 700.35 666.26 C 711.27 667.18 724.09 663.16 733.36 670.75 C 739.61 676.87 739.41 688.23 733.36 694.41 C 727.54 699.80 719.11 698.69 711.83 699.08 C 711.78 703.30 711.81 707.53 711.87 711.76 C 707.97 711.71 704.07 711.72 700.18 711.77 C 700.18 702.60 700.30 693.44 700.25 684.27 C 700.31 678.27 700.37 672.26 700.35 666.26 Z" />
<path fill="#0c1e4b" opacity="1.00" d=" M 745.28 665.66 C 748.71 666.26 752.21 666.24 755.70 666.31 C 757.98 669.36 760.30 672.39 762.56 675.47 C 766.52 681.11 770.54 686.71 774.80 692.14 C 774.83 683.52 774.68 674.90 774.88 666.29 C 778.66 666.31 782.45 666.29 786.24 666.22 C 786.35 681.44 786.41 696.66 786.23 711.89 C 782.55 711.87 778.86 711.89 775.18 711.93 C 768.67 703.23 762.83 694.04 756.10 685.51 C 756.06 694.31 756.16 703.12 756.12 711.92 C 752.29 711.86 748.46 711.84 744.64 711.89 C 745.00 696.49 743.75 680.97 745.28 665.66 Z" />
<path fill="#0e1f4c" opacity="1.00" d=" M 795.91 666.25 C 806.96 666.34 818.01 665.97 829.05 666.36 C 823.98 666.79 818.90 667.12 813.82 667.40 C 818.76 668.23 826.72 666.76 827.42 673.62 C 820.77 674.14 813.95 673.37 807.45 675.16 L 807.39 676.22 C 807.30 678.75 807.36 681.28 807.37 683.82 C 813.71 683.85 820.06 683.85 826.41 684.19 C 826.32 687.38 826.31 690.58 826.39 693.79 C 820.10 693.83 813.83 693.84 807.55 693.95 C 807.52 696.60 807.52 699.26 807.53 701.92 C 815.07 701.82 822.60 701.82 830.14 701.86 C 830.11 705.26 830.07 708.67 830.01 712.08 C 818.58 712.15 807.15 712.17 795.72 711.90 C 795.65 696.68 795.66 681.46 795.91 666.25 Z" />
<path fill="#041435" opacity="1.00" d=" M 829.05 666.36 L 829.67 666.31 C 829.38 669.64 830.25 673.27 829.00 676.39 C 821.80 676.55 814.58 676.59 807.39 676.22 L 807.45 675.16 C 813.95 673.37 820.77 674.14 827.42 673.62 C 826.72 666.76 818.76 668.23 813.82 667.40 C 818.90 667.12 823.98 666.79 829.05 666.36 Z" />
<path fill="#0c1e4b" opacity="1.00" d=" M 836.76 666.31 C 840.62 666.37 844.49 666.36 848.36 666.26 C 848.88 676.16 847.69 686.17 848.90 696.02 C 850.46 703.82 863.70 703.96 864.91 695.88 C 865.93 686.05 865.12 676.11 865.35 666.25 C 869.20 666.25 873.05 666.23 876.90 666.21 C 877.26 675.15 877.19 684.10 876.99 693.04 C 876.91 699.67 873.94 706.63 867.96 709.96 C 859.68 714.46 848.09 713.62 841.50 706.53 C 837.80 702.67 836.57 697.19 836.69 691.99 C 836.76 683.42 836.57 674.86 836.76 666.31 Z" />
<path fill="#0c1d4c" opacity="1.00" d=" M 885.93 666.20 C 890.83 666.26 895.73 666.20 900.63 666.16 C 904.46 674.92 907.95 683.82 912.07 692.45 C 916.07 683.82 919.86 675.08 923.37 666.24 C 928.43 666.15 933.51 666.16 938.58 666.17 C 938.59 681.43 938.42 696.69 938.55 711.95 C 934.76 712.09 930.97 712.11 927.19 712.09 C 927.07 702.89 927.35 693.69 926.90 684.51 C 923.11 692.06 920.28 700.05 916.87 707.78 C 913.99 707.77 911.11 707.95 908.26 707.62 C 903.56 700.58 901.32 692.18 897.33 684.73 C 897.16 693.80 897.30 702.87 897.16 711.94 C 893.45 711.89 889.74 711.87 886.05 711.90 C 886.22 696.66 885.95 681.43 885.93 666.20 Z" />
<path fill="#0d1e4b" opacity="1.00" d=" M 1000.42 666.35 C 1004.13 666.35 1007.85 666.30 1011.58 666.29 C 1017.96 674.96 1024.30 683.66 1030.86 692.20 C 1030.90 683.56 1030.64 674.93 1030.93 666.30 C 1034.78 666.32 1038.65 666.28 1042.52 666.26 C 1042.39 681.41 1042.46 696.56 1042.50 711.71 C 1038.69 711.72 1034.89 711.75 1031.09 711.85 C 1024.78 703.16 1018.62 694.35 1012.20 685.73 C 1012.22 694.53 1012.15 703.33 1012.13 712.13 C 1008.30 712.12 1004.48 712.10 1000.66 712.08 C 1000.48 696.84 1000.43 681.59 1000.42 666.35 Z" />
<path fill="#0e1f4a" opacity="1.00" d=" M 1052.29 666.37 C 1056.08 666.40 1059.88 666.37 1063.68 666.29 C 1063.59 681.49 1063.83 696.69 1063.62 711.89 C 1059.81 711.82 1056.00 711.75 1052.19 711.72 C 1052.08 696.60 1052.24 681.49 1052.29 666.37 Z" />
<path fill="#0e1e4c" opacity="1.00" d=" M 1087.23 666.29 C 1091.12 666.28 1095.02 666.24 1098.92 666.17 C 1105.13 681.33 1111.46 696.46 1117.42 711.73 C 1113.32 711.71 1109.22 711.72 1105.14 711.69 C 1104.11 709.15 1103.14 706.60 1102.15 704.06 C 1096.00 704.26 1089.86 704.23 1083.72 704.30 C 1082.88 706.82 1082.02 709.34 1081.13 711.85 C 1077.09 711.83 1073.05 711.86 1069.02 711.86 C 1074.42 696.41 1081.30 681.53 1087.23 666.29 Z" />
<path fill="#238ec7" opacity="1.00" d=" M 323.44 671.04 C 327.19 679.56 330.66 688.31 336.01 695.99 C 348.11 714.46 366.60 728.80 387.72 735.36 C 403.49 739.83 420.23 741.70 436.45 738.61 C 476.24 732.92 509.46 705.85 532.63 674.25 C 534.97 675.99 537.33 677.71 539.71 679.42 C 534.88 686.56 528.33 692.26 523.01 699.01 C 514.91 709.01 504.32 716.49 494.07 724.10 C 480.91 733.59 465.39 738.97 450.13 744.02 C 411.50 753.04 367.44 742.44 340.20 712.80 C 330.61 703.69 324.90 691.51 319.17 679.81 C 321.34 677.31 323.07 674.39 323.44 671.04 Z" />
<path fill="#fdfefe" opacity="1.00" d=" M 965.44 676.63 C 973.81 673.39 982.78 681.37 981.40 690.02 C 981.74 698.62 971.72 704.95 964.13 700.86 C 954.57 696.27 955.55 680.21 965.44 676.63 Z" />
<path fill="#f9fbfe" opacity="1.00" d=" M 711.79 676.38 C 715.17 676.35 718.59 676.07 721.95 676.65 C 727.32 677.68 727.70 686.79 722.61 688.47 C 719.11 689.44 715.43 689.13 711.86 689.21 C 711.83 684.93 711.82 680.66 711.79 676.38 Z" />
<path fill="#f6fafe" opacity="1.00" d=" M 1087.62 694.40 C 1089.37 689.52 1091.19 684.66 1093.00 679.80 C 1094.81 684.61 1096.56 689.45 1098.20 694.32 C 1094.67 694.41 1091.14 694.45 1087.62 694.40 Z" />
<path fill="#0c1a40" opacity="1.00" d=" M 1069.34 725.30 C 1077.53 725.77 1086.92 723.60 1093.89 729.14 C 1103.20 735.58 1102.22 751.97 1092.03 757.06 C 1085.06 760.70 1076.90 758.97 1069.39 759.12 C 1069.50 747.85 1069.42 736.57 1069.34 725.30 Z" />
<path fill="#0b173a" opacity="1.00" d=" M 1114.39 727.24 C 1115.24 723.92 1119.41 725.61 1121.92 725.08 C 1126.65 736.53 1131.63 747.89 1136.20 759.42 C 1133.83 759.43 1131.45 759.51 1129.11 759.22 C 1127.68 757.23 1127.06 754.81 1126.13 752.58 C 1121.09 752.47 1116.05 752.42 1111.01 752.58 C 1110.24 754.69 1109.47 756.81 1108.71 758.94 C 1106.29 759.07 1103.86 759.16 1101.46 759.24 C 1105.10 748.31 1110.26 737.98 1114.39 727.24 Z" />
<path fill="#0b1940" opacity="1.00" d=" M 1131.70 725.44 C 1134.06 725.38 1136.43 725.34 1138.82 725.29 C 1141.75 730.22 1144.63 735.17 1147.68 740.03 C 1150.62 735.17 1153.52 730.29 1156.32 725.35 C 1158.86 725.35 1161.40 725.36 1163.95 725.37 C 1160.26 731.49 1156.72 737.71 1152.61 743.57 C 1149.24 748.04 1151.10 753.96 1150.78 759.12 C 1148.46 759.16 1146.15 759.19 1143.85 759.23 C 1143.73 754.95 1144.42 750.58 1143.54 746.38 C 1139.97 739.19 1134.99 732.78 1131.70 725.44 Z" />
<path fill="#feffff" opacity="1.00" d=" M 1076.33 731.57 C 1080.22 731.84 1084.43 731.06 1088.08 732.81 C 1094.66 736.32 1095.21 746.90 1089.19 751.21 C 1085.48 753.90 1080.64 753.16 1076.36 753.15 C 1076.34 745.95 1076.30 738.76 1076.33 731.57 Z" />
<path fill="#f7f9fe" opacity="1.00" d=" M 1113.55 746.36 C 1115.08 742.06 1116.70 737.79 1118.70 733.69 C 1120.40 737.86 1121.90 742.10 1123.35 746.37 C 1120.07 746.42 1116.81 746.41 1113.55 746.36 Z" />
<path fill="#e7ebee" opacity="1.00" d=" M 242.22 767.41 C 312.96 761.38 384.03 762.25 454.97 761.75 C 486.20 761.91 517.40 763.42 548.60 764.49 C 567.30 765.21 585.98 766.53 604.60 768.48 C 608.36 768.97 612.27 769.45 615.65 771.32 C 616.06 774.10 611.74 773.95 609.82 774.67 C 576.40 779.12 542.62 779.63 509.00 781.21 C 498.32 781.15 487.65 781.32 477.01 782.33 C 397.52 781.92 317.84 783.74 238.60 776.41 C 232.63 775.70 226.48 774.97 221.17 771.95 C 227.40 767.89 235.14 768.38 242.22 767.41 Z" />
</svg>
